<svg id="Layer_1" data-name="Layer 1" xmlns="http://www.w3.org/2000/svg" viewBox="0 0 115 226"><defs><style>.cls-1{fill:#fff;}</style></defs><title>Gutt</title><path d="M5,29.56S17.55,12.84,34.27,5.88s27.85-9.75,32,0,0,13.93,0,13.93S64.9,3.1,80.22,5.88c0,0,4.18,0,5.57,19.5s0,37.6,5.57,43.17,12.54,29.25,5.57,37.6-8.47,2.78-9.74,33.42c-1.4,33.43,8.35,23.68,12.53,30.64,1.6,2.67,5.57,12.54-5.57,25.07,0,0-7,4.55,13.93,8.36,15.31,2.78,1.39,13.92-12.54,8.35s9.75,8.36,9.75,8.36,11.14,7-13.93,5.57-19.49-11.14-18.1-15.32,7.66-20.19-3.48-25.76-27.85-16.72-27.85-51.53-2.39-37.35,2.78-46c2.09-3.48,0-8.35-9.75-9.75s-23-9-29.24-15.32C.41,57-4.73,43.48,5,29.56Z"/><circle class="cls-1" cx="45.63" cy="39.38" r="4.4"/><circle class="cls-1" cx="60.98" cy="28.86" r="3.48"/></svg>