<svg id="Layer_1" data-name="Layer 1" xmlns="http://www.w3.org/2000/svg" viewBox="0 0 540 868"><defs><style>.cls-1{fill:none;stroke:#a0a0a0;stroke-miterlimit:10;stroke-width:2px;}.cls-2{fill:#a0a0a0;}.cls-3{fill:#0c0c0c;}.cls-4{fill:#e5e5e5;}</style></defs><title>Klippe</title><path class="cls-1" d="M373.42,581.75s66.12-208.67,90.63-271.48"/><path class="cls-1" d="M428.05,591.27s-18.47-122.1-20-286"/><path class="cls-1" d="M237.09,535.8s33-78.53,52-157.53"/><path class="cls-1" d="M231,535.8s-5.91-103.53-4.91-134.53"/><path class="cls-2" d="M364.23,577.15a278.39,278.39,0,0,1,38.29,0c18.38,1.54,24.51,10.73,30.64,18.39s10.72,35.23-6.13,53.61-33.7,7.66-44.42,6.13-26-24.51-33.7-27.58-46-23-76.59-33.7S257,571,250.88,566.43s-36.77-19.91-32.17-33.7,62.8,15.32,73.52,21.45S348.91,577.15,364.23,577.15Z"/><path class="cls-2" d="M355.89,629.75a101.45,101.45,0,0,1,6.05,13.6,133.4,133.4,0,0,1,7,28.71,134.22,134.22,0,0,1,1.09,14.71,138.18,138.18,0,0,0-1.58-14.64,129.78,129.78,0,0,0-3.18-14.35,126.81,126.81,0,0,0-4.75-13.88,99.93,99.93,0,0,0-6.36-13.12Z"/><path class="cls-2" d="M437.05,616.25q.1,18.27-.07,36.52c-.14,12.17-.34,24.35-.93,36.5.26-12.16.13-24.33-.07-36.49s-.53-24.33-.93-36.49Z"/><polygon class="cls-2" points="278.55 591.27 278.05 609.27 277.55 591.27 278.55 591.27"/><path class="cls-2" d="M342.09,347.27Q339.77,368.12,338,389l-.89,10.45c-.26,3.48-.5,7-.69,10.45s-.3,7-.36,10.48l0,5.24c0,1.75,0,3.49,0,5.24.1,3.49.09,7,.33,10.47l.28,5.22c.13,1.74.31,3.48.46,5.21.55,6.95,2,13.78,3,20.71s1.93,13.88,2.41,20.86q.38,5.25.41,10.5c0,1.75-.05,3.5-.17,5.25a35,35,0,0,1-.66,5.21l-.09,0a59.59,59.59,0,0,0,.42-10.43c-.09-3.49-.31-7-.63-10.45-.64-6.95-1.64-13.86-2.71-20.76-.5-3.45-1.21-6.87-1.7-10.34s-1-6.94-1.24-10.44c-.12-1.75-.31-3.49-.39-5.24l-.18-5.25c-.17-3.5-.08-7-.1-10.5s.17-7,.2-10.49l.37-10.48.48-10.48c.21-3.49.37-7,.63-10.47,1.06-13.95,2.62-27.86,4.84-41.67Z"/><path class="cls-2" d="M161.59,409.76c2.2,7.59,4.09,15.27,5.78,23s3.13,15.5,4.2,23.33a189,189,0,0,1,1.82,23.65l-.16,5.93c-.21,2-.36,3.94-.62,5.9-.58,3.91-1,7.83-1.48,11.75-.9,7.84-1.58,15.71-2.24,23.57s-1.18,15.74-1.61,23.62c-.23,3.94-.36,7.88-.53,11.82l-.21,5.92-.1,5.91c0,3.94,0,7.89.18,11.83,0,2,.23,3.93.34,5.9,0,1,.17,2,.28,3l.35,2.93-.09,0a146,146,0,0,1-1.78-23.63c-.1-7.91.13-15.81.53-23.7s1-15.78,1.71-23.65,1.6-15.72,2.62-23.56,2.78-15.6,2.46-23.51l-.22-5.91-.52-5.89c-.44-3.92-.93-7.83-1.55-11.73-2.35-15.59-5.58-31.05-9.25-46.41Z"/><path class="cls-3" d="M328.48,51.53c7.06-10.76,26.16-.61,40.07,1.24,60,8,152,65,152,65-17,72,19,165-8,182s-65-2-160,49-206,74-206,74-14-4-22,0-21,94-40,172-85,273-85,273v-794c4.54,2.45,26,2.45,53.94,1.42,0,0,39.06,118.58,70.06,148.58,0,0,85,13,140-1S302.42,91.29,328.48,51.53Z"/><polygon class="cls-3" points="127.55 225.34 133.54 127.77 140.59 226.91 127.55 225.34"/><polygon class="cls-3" points="85.12 180.03 124.86 148.96 90.66 187.23 85.12 180.03"/><polygon class="cls-3" points="100.64 201.36 130.31 160.55 107.95 206.75 100.64 201.36"/><polygon class="cls-3" points="60.7 152.66 128.12 135.59 62.38 161.62 60.7 152.66"/><polygon class="cls-3" points="154.05 228.21 163.54 108.77 167.38 229.2 154.05 228.21"/><polygon class="cls-3" points="185.55 230.05 192.54 145.77 196.55 230.25 185.55 230.05"/><polygon class="cls-3" points="228.5 229.2 225.54 134.77 237.09 228.39 228.5 229.2"/><polygon class="cls-3" points="248.15 226.91 254.54 121.77 261.26 224.34 248.15 226.91"/><polygon class="cls-3" points="143.54 228.77 147.54 176.77 150.04 228.77 143.54 228.77"/><polygon class="cls-3" points="172.54 231.77 177.54 170.77 180.54 233.77 172.54 231.77"/><polygon class="cls-3" points="200.54 236.39 205.54 163.77 208.54 238.77 200.54 236.39"/><polygon class="cls-3" points="210.54 241.58 218.67 174.77 223.54 243.77 210.54 241.58"/><polygon class="cls-3" points="272.21 224.88 240.6 159.48 284.47 219.96 272.21 224.88"/><polygon class="cls-3" points="290.58 209.12 260.71 158.84 301.91 202.47 290.58 209.12"/><polygon class="cls-3" points="314.93 141.36 260.69 150.6 313.63 130.71 314.93 141.36"/><path class="cls-3" d="M40.1,81.28a127,127,0,0,0-2-13.66c-.88-4.52-2-9-3.28-13.43-.61-2.23-1.37-4.41-2.08-6.61s-1.52-4.35-2.42-6.48A132.43,132.43,0,0,0,24.5,28.53,130.44,130.44,0,0,1,30.55,41c.94,2.11,1.7,4.3,2.55,6.45s1.54,4.36,2.2,6.58c1.38,4.42,2.57,8.9,3.54,13.43A128.8,128.8,0,0,1,41.09,81.2Z"/><path class="cls-3" d="M20.8,82.13c-1.69-8.47-3.57-16.93-5.72-25.31-1.08-4.19-2.23-8.36-3.56-12.48-.68-2.05-1.39-4.09-2.23-6.09a31.3,31.3,0,0,0-1.38-2.93A9,9,0,0,0,6,32.74a8.94,8.94,0,0,1,2,2.55A30.32,30.32,0,0,1,9.41,38.2c.87,2,1.63,4,2.35,6.07,1.41,4.09,2.64,8.25,3.81,12.42,2.31,8.35,4.35,16.77,6.21,25.24Z"/><path class="cls-3" d="M5.55,76.2c.52-3.32.93-6.67,1.25-10s.53-6.71.58-10.08A62.77,62.77,0,0,0,6.86,46a24.81,24.81,0,0,0-1.17-4.9,8.34,8.34,0,0,0-2.84-4.08,8.37,8.37,0,0,1,2.95,4A24.25,24.25,0,0,1,7.1,46,63.4,63.4,0,0,1,7.88,56.1c0,3.38-.11,6.77-.34,10.14S7,73,6.54,76.35Z"/><path class="cls-3" d="M24.71,81a54.59,54.59,0,0,0,1.83-10,54.73,54.73,0,0,0,0-10.24,40.41,40.41,0,0,0-2.27-10l-1-2.38c-.36-.78-.79-1.53-1.19-2.29l-.6-1.14-.72-1.06L19.3,41.71l1.51,2.09.75,1.05L22.19,46c.41.76.87,1.49,1.25,2.27l1,2.37a41.26,41.26,0,0,1,2.54,10A55.18,55.18,0,0,1,27.29,71a56.26,56.26,0,0,1-1.62,10.28Z"/><path class="cls-3" d="M39,84.81a66.41,66.41,0,0,0,5.43-9.17,50.38,50.38,0,0,0,3.71-10A26.1,26.1,0,0,0,48.72,55,17.24,17.24,0,0,0,47,50a18.36,18.36,0,0,0-3.22-4.27,18.35,18.35,0,0,1,3.33,4.21A17.14,17.14,0,0,1,49,55a26.45,26.45,0,0,1-.31,10.74A51.24,51.24,0,0,1,45.13,76a67.38,67.38,0,0,1-5.3,9.44Z"/><path class="cls-3" d="M13.91,78.74c.56-4.24.92-8.52,1.15-12.8s.28-8.57.12-12.86a81.79,81.79,0,0,0-1.4-12.77c-.88-4.16-2.11-8.39-4.68-11.87,2.64,3.43,4,7.65,4.93,11.82a82.26,82.26,0,0,1,1.65,12.8c.25,4.3.26,8.61.12,12.91s-.42,8.6-.9,12.9Z"/><path class="cls-3" d="M56.81,94.37a126.81,126.81,0,0,0-2-13.65q-1.34-6.8-3.29-13.44c-.61-2.22-1.37-4.4-2.07-6.6S47.94,56.32,47,54.2a128.81,128.81,0,0,0-5.81-12.57,129,129,0,0,1,6,12.47c1,2.11,1.71,4.3,2.55,6.46s1.55,4.36,2.2,6.58q2.09,6.63,3.54,13.43A126.34,126.34,0,0,1,57.81,94.3Z"/><path class="cls-3" d="M37.52,95.23C35.82,86.75,34,78.3,31.8,69.92c-1.08-4.19-2.23-8.36-3.56-12.48-.68-2-1.4-4.1-2.23-6.09a29,29,0,0,0-1.39-2.93,8.6,8.6,0,0,0-1.93-2.58,8.83,8.83,0,0,1,2,2.55,31.45,31.45,0,0,1,1.44,2.91c.88,2,1.64,4,2.35,6.06,1.42,4.1,2.65,8.25,3.81,12.43C34.59,78.14,36.64,86.56,38.5,95Z"/><path class="cls-3" d="M8.56,78.14a52.77,52.77,0,0,0,1.74-22A39.46,39.46,0,0,0,7.16,45.56a38.2,38.2,0,0,0-6.11-9.29,37.93,37.93,0,0,1,6.33,9.18A39,39,0,0,1,10.79,56.1,53.65,53.65,0,0,1,9.53,78.4Z"/><path class="cls-3" d="M-.41,76.06c1.2-2.58,2.28-5.24,3.27-7.92A81.63,81.63,0,0,0,5.41,60a33.78,33.78,0,0,0,1.16-8.47A11.27,11.27,0,0,0,5.8,47.3a5.25,5.25,0,0,0-2.93-2.95,5.37,5.37,0,0,1,3.05,2.9,11.32,11.32,0,0,1,.9,4.22,34,34,0,0,1-.93,8.59,82.91,82.91,0,0,1-2.32,8.33C2.65,71.12,1.64,73.82.5,76.48Z"/><path class="cls-3" d="M22.24,86.53c.53-3.08,1-6.21,1.26-9.33s.54-6.26.59-9.4a54.58,54.58,0,0,0-.56-9.39,21.49,21.49,0,0,0-1.21-4.53,8.07,8.07,0,0,0-2.75-3.73,8.09,8.09,0,0,1,2.87,3.68,22.34,22.34,0,0,1,1.34,4.54,55.25,55.25,0,0,1,.81,9.43c0,3.16-.1,6.32-.34,9.47s-.56,6.28-1,9.42Z"/><path class="cls-3" d="M41.43,94.1a55.75,55.75,0,0,0,1.83-10,54.84,54.84,0,0,0,0-10.25,40.91,40.91,0,0,0-2.28-10l-1-2.39c-.35-.78-.79-1.52-1.18-2.28L38.2,58l-.73-1.07L36,54.8l1.51,2.1L38.28,58l.63,1.12c.41.76.87,1.5,1.24,2.27l1,2.38a41.64,41.64,0,0,1,2.54,10A55.28,55.28,0,0,1,44,84.11a55.52,55.52,0,0,1-1.61,10.28Z"/><path class="cls-3" d="M55.74,97.91a66.52,66.52,0,0,0,5.43-9.18,50.26,50.26,0,0,0,3.7-10,25.94,25.94,0,0,0,.56-10.59,17.09,17.09,0,0,0-1.69-5,18.86,18.86,0,0,0-3.22-4.27A19.14,19.14,0,0,1,63.85,63a17.54,17.54,0,0,1,1.83,5.06,26.5,26.5,0,0,1-.32,10.75,49.92,49.92,0,0,1-3.52,10.21,65.78,65.78,0,0,1-5.29,9.44Z"/><path class="cls-3" d="M30.62,91.83c.56-4.23.92-8.52,1.15-12.79s.29-8.58.13-12.86a81.66,81.66,0,0,0-1.4-12.77c-.88-4.17-2.12-8.4-4.69-11.88,2.64,3.43,4,7.66,4.93,11.83a80.94,80.94,0,0,1,1.66,12.8c.24,4.29.26,8.6.12,12.91s-.42,8.6-.9,12.89Z"/><path class="cls-3" d="M22.88,91.66a127,127,0,0,0-2-13.66c-.88-4.52-2-9-3.28-13.43-.61-2.23-1.37-4.41-2.08-6.6S14,53.61,13.1,51.48A132.43,132.43,0,0,0,7.28,38.91a130.44,130.44,0,0,1,6.05,12.48c.94,2.11,1.7,4.3,2.55,6.45s1.54,4.36,2.2,6.58c1.38,4.42,2.57,8.9,3.54,13.43a131.84,131.84,0,0,1,2.26,13.73Z"/><path class="cls-3" d="M7.49,91.38a54.59,54.59,0,0,0,1.83-10,54.73,54.73,0,0,0,0-10.24A40.23,40.23,0,0,0,7,61.1l-1-2.39c-.36-.78-.79-1.52-1.19-2.29l-.6-1.14-.72-1.06L2.08,52.09l1.51,2.09.75,1L5,56.36c.41.76.87,1.49,1.25,2.27l1,2.38A40.73,40.73,0,0,1,9.78,71a55.18,55.18,0,0,1,.29,10.36A56.26,56.26,0,0,1,8.45,91.67Z"/><path class="cls-3" d="M21.8,95.19A65.83,65.83,0,0,0,27.23,86a50.38,50.38,0,0,0,3.71-10,26.1,26.1,0,0,0,.56-10.59,17.34,17.34,0,0,0-1.7-5,18.36,18.36,0,0,0-3.22-4.27,18.35,18.35,0,0,1,3.33,4.21,17.14,17.14,0,0,1,1.83,5.06,26.5,26.5,0,0,1-.31,10.75,51.15,51.15,0,0,1-3.52,10.21,67.38,67.38,0,0,1-5.3,9.44Z"/><path class="cls-3" d="M36.58,76.87a129.37,129.37,0,0,0-2-13.65q-1.34-6.8-3.29-13.44c-.61-2.22-1.37-4.4-2.07-6.6S27.7,38.82,26.8,36.7A130.08,130.08,0,0,0,21,24.12,130.36,130.36,0,0,1,27,36.6c.94,2.11,1.71,4.3,2.55,6.45s1.55,4.37,2.2,6.59c1.39,4.41,2.57,8.9,3.54,13.43A125.94,125.94,0,0,1,37.58,76.8Z"/><path class="cls-3" d="M17.29,77.73c-1.7-8.48-3.58-16.93-5.72-25.32C10.49,48.23,9.33,44.05,8,39.94c-.67-2-1.39-4.1-2.22-6.09a29,29,0,0,0-1.39-2.93,8.6,8.6,0,0,0-1.93-2.58,8.83,8.83,0,0,1,2,2.55A30.25,30.25,0,0,1,5.89,33.8c.88,2,1.63,4,2.35,6.06,1.41,4.1,2.65,8.25,3.81,12.43,2.31,8.35,4.35,16.77,6.22,25.24Z"/><path class="cls-3" d="M2,75c.69-3,1.27-6,1.75-9.09s.86-6.12,1.06-9.2a50,50,0,0,0-.1-9.24,19.73,19.73,0,0,0-1-4.5,7.6,7.6,0,0,0-2.65-3.7,7.64,7.64,0,0,1,2.77,3.65A20.77,20.77,0,0,1,5,47.43a51.74,51.74,0,0,1,.35,9.31c-.12,3.1-.42,6.2-.82,9.28s-.9,6.14-1.52,9.2Z"/><path class="cls-3" d="M21.2,76.59a55.47,55.47,0,0,0,1.82-10A54,54,0,0,0,23,56.3a40.8,40.8,0,0,0-2.28-10l-1-2.39c-.36-.78-.79-1.52-1.18-2.28L18,40.5l-.72-1.07L15.78,37.3l1.51,2.1L18,40.45l.64,1.12c.41.76.86,1.5,1.24,2.27l1,2.38a41.64,41.64,0,0,1,2.54,10,55.28,55.28,0,0,1,.28,10.37,55.54,55.54,0,0,1-1.62,10.28Z"/><path class="cls-3" d="M35.5,80.4a63.92,63.92,0,0,0,5.43-9.17,49.68,49.68,0,0,0,3.71-10,26.11,26.11,0,0,0,.56-10.59,17.11,17.11,0,0,0-1.7-5,18.29,18.29,0,0,0-3.22-4.27,18.35,18.35,0,0,1,3.33,4.21,17.56,17.56,0,0,1,1.84,5.06,26.5,26.5,0,0,1-.32,10.75,50.53,50.53,0,0,1-3.52,10.21A64.9,64.9,0,0,1,36.31,81Z"/><path class="cls-3" d="M10.55,76.21c.53-4.39.88-8.83,1.09-13.27s.27-8.88.09-13.32a86.43,86.43,0,0,0-1.4-13.24C9.45,32.05,8.24,27.65,5.58,24c2.73,3.57,4,8,5,12.3a86.9,86.9,0,0,1,1.65,13.26c.26,4.46.28,8.92.16,13.38s-.39,8.91-.85,13.36Z"/><path class="cls-3" d="M59.53,100.47a127,127,0,0,0-2-13.66c-.88-4.52-2-9-3.28-13.43-.61-2.23-1.37-4.41-2.07-6.6s-1.53-4.36-2.43-6.49a129.91,129.91,0,0,0-5.81-12.57A130.36,130.36,0,0,1,50,60.2c.94,2.11,1.7,4.3,2.55,6.45s1.55,4.36,2.2,6.58c1.38,4.42,2.57,8.9,3.54,13.43a128.82,128.82,0,0,1,2.26,13.73Z"/><path class="cls-3" d="M40.23,101.32C38.54,92.85,36.66,84.39,34.52,76c-1.08-4.19-2.24-8.36-3.57-12.47-.67-2.06-1.39-4.1-2.22-6.1a27.89,27.89,0,0,0-1.39-2.92,8.77,8.77,0,0,0-1.93-2.58,8.59,8.59,0,0,1,2,2.54,29.36,29.36,0,0,1,1.45,2.92c.88,2,1.63,4,2.35,6.06,1.41,4.09,2.65,8.25,3.81,12.42,2.31,8.35,4.35,16.77,6.21,25.24Z"/><path class="cls-3" d="M12.55,77.18a27.23,27.23,0,0,0,.07-4.44c-.08-1.51-.22-3-.41-4.52a58.53,58.53,0,0,0-1.82-8.9,50.8,50.8,0,0,0-3.27-8.49,39.19,39.19,0,0,0-5.07-7.56,39.44,39.44,0,0,1,5.29,7.45,51.29,51.29,0,0,1,3.53,8.45A59.47,59.47,0,0,1,13,68.11c.24,1.52.42,3,.55,4.57a29.16,29.16,0,0,1,0,4.68Z"/><path class="cls-3" d="M8.56,77.14a64.66,64.66,0,0,0,1.61-7,49.68,49.68,0,0,0,.76-7.19,22.91,22.91,0,0,0-.83-7.14,9.87,9.87,0,0,0-1.64-3.19,6.84,6.84,0,0,0-2.87-2.13,7,7,0,0,1,3,2,10,10,0,0,1,1.77,3.19,23,23,0,0,1,1.1,7.22,52.48,52.48,0,0,1-.51,7.3,68.73,68.73,0,0,1-1.39,7.2Z"/><path class="cls-3" d="M25,92.62c.53-3.08.94-6.2,1.26-9.32s.53-6.26.58-9.4a53.59,53.59,0,0,0-.55-9.39A21.58,21.58,0,0,0,25,60a8.17,8.17,0,0,0-2.75-3.73,8.17,8.17,0,0,1,2.86,3.69,21.14,21.14,0,0,1,1.34,4.54,53.14,53.14,0,0,1,.81,9.43c0,3.16-.1,6.31-.33,9.46s-.57,6.29-1,9.43Z"/><path class="cls-3" d="M44.15,100.19a55.42,55.42,0,0,0,1.82-10,54.73,54.73,0,0,0,0-10.24,40.88,40.88,0,0,0-2.28-10l-1-2.38c-.36-.78-.79-1.53-1.18-2.29l-.61-1.14L40.19,63,38.73,60.9,40.24,63,41,64l.63,1.13c.42.76.87,1.49,1.25,2.27l1,2.37a40.81,40.81,0,0,1,2.54,10,54.35,54.35,0,0,1,.29,10.36,55.41,55.41,0,0,1-1.62,10.28Z"/><path class="cls-3" d="M58.45,104a66.41,66.41,0,0,0,5.43-9.17,49.77,49.77,0,0,0,3.71-10,26.1,26.1,0,0,0,.56-10.59,17.34,17.34,0,0,0-1.7-5,18.36,18.36,0,0,0-3.22-4.27,18.35,18.35,0,0,1,3.33,4.21,17.45,17.45,0,0,1,1.84,5.06,26.45,26.45,0,0,1-.32,10.74,51.24,51.24,0,0,1-3.52,10.22,66.39,66.39,0,0,1-5.3,9.44Z"/><path class="cls-3" d="M33.34,97.93c.56-4.24.92-8.52,1.15-12.8s.29-8.57.12-12.86A81.77,81.77,0,0,0,33.22,59.5c-.89-4.16-2.12-8.39-4.69-11.87,2.64,3.43,4,7.65,4.93,11.82a82.26,82.26,0,0,1,1.65,12.8c.25,4.3.27,8.61.13,12.91s-.43,8.6-.91,12.9Z"/><path class="cls-4" d="M450.43,73.88s-1,3.18-1.63,6.27l2,1.33s1.62-5.13,1.54-7.39c0,0,.87,1,1.29.14s-.48-4.57-2.1-4.75-3,3.74-2.74,4.22S449,74.63,450.43,73.88Z"/><path class="cls-4" d="M455.25,77.92a45.35,45.35,0,0,0-1.46,4.53l2.1,1s1.49-3.69,1.34-5.35c0,0,.92.76,1.32.14s-.64-3.35-2.29-3.53-3,2.64-2.66,3S453.86,78.42,455.25,77.92Z"/><path class="cls-4" d="M441,69.71s-.82,2.81-1.38,5.55l1.65,1.16s1.38-4.54,1.32-6.54c0,0,.72.88,1.07.12s-.37-4-1.7-4.18-2.51,3.32-2.29,3.75S439.89,70.38,441,69.71Z"/><path class="cls-3" d="M504.05,122.82a126.3,126.3,0,0,0,1.08-13.76q.21-6.91-.22-13.83c-.1-2.3-.36-4.6-.56-6.9s-.52-4.58-.93-6.86a130.33,130.33,0,0,0-2.87-13.54,132.05,132.05,0,0,1,3.12,13.5c.45,2.27.71,4.57,1.06,6.86s.54,4.6.68,6.91q.55,6.92.47,13.88A126.71,126.71,0,0,1,505,123Z"/><path class="cls-3" d="M485.05,119.37c.23-8.64.27-17.3,0-25.95-.13-4.32-.33-8.65-.71-13-.21-2.16-.45-4.31-.82-6.44a31.28,31.28,0,0,0-.7-3.16,8.75,8.75,0,0,0-1.31-2.94,8.69,8.69,0,0,1,1.37,2.92,31.56,31.56,0,0,1,.76,3.16c.41,2.13.7,4.28.95,6.43.46,4.31.75,8.64,1,13,.4,8.66.52,17.32.46,26Z"/><path class="cls-3" d="M446.05,102.92c.8-4,1.44-8.15,2-12.25s1-8.22,1.21-12.35a96.81,96.81,0,0,0,0-12.4c-.31-4.11-.86-8.31-2.74-12,2,3.69,2.59,7.9,3,12a97.44,97.44,0,0,1,.21,12.44c-.17,4.15-.52,8.29-1,12.42s-1,8.24-1.74,12.34Z"/><path class="cls-3" d="M428.05,93.62c.6-9.05.92-18.14.82-27.22-.06-4.54-.23-9.09-.69-13.61a56.5,56.5,0,0,0-1-6.72,14.1,14.1,0,0,0-2.6-6.21c1.53,1.71,2.17,4,2.73,6.18a58.75,58.75,0,0,1,1.15,6.73c.54,4.52.8,9.07.94,13.61.26,9.11.11,18.21-.33,27.31Z"/><path class="cls-3" d="M413.05,78.43c.13-3.65.13-7.32.05-11s-.27-7.33-.58-11A95.33,95.33,0,0,0,411,45.57a35.35,35.35,0,0,0-3.47-10.39,35.74,35.74,0,0,1,3.72,10.34A95.67,95.67,0,0,1,413,56.41c.39,3.66.68,7.33.83,11s.24,7.35.2,11Z"/><path class="cls-3" d="M395.06,78.33c1-4,1.9-8,2.64-12s1.34-8.1,1.73-12.19a72,72,0,0,0,.2-12.28,29.48,29.48,0,0,0-1.11-6,12.49,12.49,0,0,0-3-5.31,12.57,12.57,0,0,1,3.09,5.27,30.51,30.51,0,0,1,1.24,6,71.86,71.86,0,0,1,0,12.36c-.3,4.11-.82,8.2-1.48,12.26S397,74.55,396,78.58Z"/><path class="cls-3" d="M379.05,66.67a192.26,192.26,0,0,0,2.33-19.89,90.54,90.54,0,0,0,.12-10,41.39,41.39,0,0,0-.51-5A17.78,17.78,0,0,0,379.55,27a17.72,17.72,0,0,1,1.56,4.76,42,42,0,0,1,.64,5,93.8,93.8,0,0,1,.13,10.06,195.3,195.3,0,0,1-1.84,20Z"/><path class="cls-3" d="M369.08,66.57a76,76,0,0,0,3-9.77,66.26,66.26,0,0,0,1.59-10.11,40.6,40.6,0,0,0-.39-10.21A24,24,0,0,0,369.55,27a24.14,24.14,0,0,1,3.94,9.45,41.18,41.18,0,0,1,.64,10.28A66.47,66.47,0,0,1,372.77,57a76.13,76.13,0,0,1-2.76,10Z"/><path class="cls-3" d="M354.22,53.52a21.65,21.65,0,0,0,4.29-5.64,20.86,20.86,0,0,0,2.3-6.78,21.17,21.17,0,0,0-.08-7.19,24.21,24.21,0,0,0-.86-3.53c-.37-1.15-.89-2.25-1.32-3.39.47,1.12,1,2.21,1.44,3.35a27.07,27.07,0,0,1,1,3.52,21.61,21.61,0,0,1,.32,7.31,21.3,21.3,0,0,1-2.12,7,22.56,22.56,0,0,1-4.3,6.05Z"/><path class="cls-3" d="M340.09,50.17a39,39,0,0,0,2.27-6.77,39.58,39.58,0,0,0,1-7.1,29.73,29.73,0,0,0-.5-7.17,26.26,26.26,0,0,0-2.33-6.81,26.6,26.6,0,0,1,2.58,6.76,30.26,30.26,0,0,1,.75,7.23A40.59,40.59,0,0,1,341,50.59Z"/><path class="cls-3" d="M364.05,56.15c1.44-8.12,2.76-16.26,3.88-24.43.55-4.08,1.08-8.17,1.45-12.28.11-1,.18-2.05.25-3.08s.15-2,.17-3.08l.05-1.55c0-.51,0-1,0-1.54a21.12,21.12,0,0,0-.28-3.08,21.2,21.2,0,0,1,.34,3.07c0,.52.05,1,.06,1.55l0,1.55c0,1,0,2.06-.1,3.09s-.1,2.06-.19,3.09c-.29,4.12-.73,8.22-1.2,12.32-1,8.2-2.11,16.38-3.39,24.53Z"/><path class="cls-3" d="M385.06,61.94c1.27-3.6,2.63-7,3.83-10.6s2.34-7.11,3.31-10.73a71,71,0,0,0,2.13-11A27.48,27.48,0,0,0,394.4,24a10,10,0,0,0-1.85-5.21,10.08,10.08,0,0,1,2,5.19,27.88,27.88,0,0,1,.06,5.63,70.68,70.68,0,0,1-1.9,11.11c-.88,3.65-1.93,7.26-3.08,10.84s-2.43,7.14-3.57,10.63Z"/><path class="cls-3" d="M399.06,71.32q1.5-6,2.74-12.17c.83-4.07,1.58-8.16,2.19-12.27a117.38,117.38,0,0,0,1.3-12.4,48,48,0,0,0-.07-6.23,13.17,13.17,0,0,0-1.67-5.93,13.2,13.2,0,0,1,1.79,5.92,46.63,46.63,0,0,1,.2,6.25A121,121,0,0,1,404.49,47c-.54,4.13-1.21,8.25-1.95,12.35S401,67.48,400,71.55Z"/><path class="cls-3" d="M419.06,86.53c.86-4.57,1.41-9.29,1.91-14s.87-9.38,1.09-14.09.29-9.43.05-14.13a68.58,68.58,0,0,0-.71-7,28.61,28.61,0,0,0-1.85-6.81,28.45,28.45,0,0,1,2,6.79,68.79,68.79,0,0,1,.84,7c.32,4.71.34,9.45.2,14.17s-.43,9.44-.84,14.15S420.84,82,420,86.74Z"/><path class="cls-3" d="M437.06,93.54c1-4.39,1.8-8.87,2.43-13.35s1.1-9,1.27-13.52a94.59,94.59,0,0,0-.29-13.57,53.71,53.71,0,0,0-2.92-13.24,54.41,54.41,0,0,1,3.17,13.21,95.36,95.36,0,0,1,.54,13.62c-.09,4.55-.49,9.08-1,13.6S439,89.3,438,93.77Z"/><path class="cls-3" d="M422.08,93.48c1.75-4.59,3.36-9.25,4.84-13.94s2.82-9.44,4-14.23a106.85,106.85,0,0,0,2.5-14.53,44.25,44.25,0,0,0,.09-7.37,16.84,16.84,0,0,0-1.92-7.06,17,17,0,0,1,2.05,7,44.59,44.59,0,0,1,0,7.4,106.43,106.43,0,0,1-2.27,14.63c-1.05,4.82-2.32,9.59-3.72,14.33s-2.93,9.42-4.63,14.07Z"/><path class="cls-3" d="M441.07,93.51c2.59-8.81,4.9-17.72,6.78-26.72.92-4.5,1.74-9,2.23-13.6a51,51,0,0,0,.33-6.88A18.63,18.63,0,0,0,450,42.9a5.57,5.57,0,0,0-1.49-3,5.63,5.63,0,0,1,1.55,3,19,19,0,0,1,.44,3.43,51.47,51.47,0,0,1-.21,6.91c-.41,4.59-1.15,9.14-2,13.67-1.72,9-3.87,18-6.31,26.9Z"/><path class="cls-3" d="M454.09,107.49c.35-1,.64-2.13.92-3.21s.55-2.21.8-3.32c.5-2.21,1-4.45,1.37-6.68.84-4.48,1.5-9,1.95-13.53a91.38,91.38,0,0,0,.44-13.64,45.45,45.45,0,0,0-.8-6.78,23.3,23.3,0,0,0-2.22-6.44,23.27,23.27,0,0,1,2.34,6.41,44.52,44.52,0,0,1,.93,6.79,93.65,93.65,0,0,1-.19,13.71c-.37,4.56-.95,9.09-1.71,13.61-.38,2.25-.79,4.5-1.26,6.74-.23,1.12-.48,2.24-.74,3.36s-.5,2.19-.91,3.37Z"/><path class="cls-3" d="M445.17,98c2.29-2.67,4.51-5.43,6.65-8.23s4.2-5.68,6.11-8.65a59.12,59.12,0,0,0,5-9.29,18.41,18.41,0,0,0,1.38-5.08,9.69,9.69,0,0,0,0-1.32,6.19,6.19,0,0,0-.26-1.28,4.18,4.18,0,0,0-1.55-2.08,4.21,4.21,0,0,1,1.61,2.06,6.34,6.34,0,0,1,.29,1.29,8.57,8.57,0,0,1,0,1.34,18.39,18.39,0,0,1-1.26,5.16,59.85,59.85,0,0,1-4.85,9.46c-1.85,3-3.85,6-5.93,8.84s-4.23,5.68-6.49,8.43Z"/><path class="cls-3" d="M472.08,107.5c1.2-2.89,2.3-5.84,3.3-8.82s1.91-6,2.65-9a54.14,54.14,0,0,0,1.54-9.28,21.65,21.65,0,0,0-.17-4.69,8.09,8.09,0,0,0-1.85-4.25,8.22,8.22,0,0,1,2,4.23,22,22,0,0,1,.29,4.72,55,55,0,0,1-1.3,9.38c-.67,3.09-1.5,6.14-2.43,9.15s-1.94,6-3.08,9Z"/><path class="cls-3" d="M489.11,119.14a56,56,0,0,0,6.25-19.4,40.8,40.8,0,0,0,0-10.24L495,87c-.18-.83-.44-1.65-.65-2.49L494,83.22,493.5,82l-.95-2.4,1,2.38.5,1.19.37,1.24c.24.83.52,1.65.71,2.48l.47,2.55a41.6,41.6,0,0,1,.26,10.34A56.5,56.5,0,0,1,490,119.63Z"/><path class="cls-3" d="M502.22,126a66.33,66.33,0,0,0,7.33-7.74,50,50,0,0,0,5.83-8.93,26.11,26.11,0,0,0,2.9-10.2,17.55,17.55,0,0,0-.54-5.3A18.56,18.56,0,0,0,515.55,89a18.27,18.27,0,0,1,2.31,4.84,17.48,17.48,0,0,1,.67,5.34,26.47,26.47,0,0,1-2.7,10.41,50.53,50.53,0,0,1-5.69,9.18,68,68,0,0,1-7.26,8Z"/><path class="cls-3" d="M479.08,114.53c1.48-4,2.78-8.1,3.95-12.22s2.19-8.3,3-12.51A81.77,81.77,0,0,0,487.48,77c.06-4.26-.2-8.66-1.93-12.62,1.81,3.93,2.16,8.34,2.18,12.62a81.5,81.5,0,0,1-1.23,12.85c-.71,4.24-1.65,8.45-2.74,12.62s-2.32,8.29-3.75,12.37Z"/><path class="cls-3" d="M508.05,131a125.92,125.92,0,0,0,1.08-13.75c.14-4.61.07-9.23-.22-13.83-.1-2.31-.36-4.6-.56-6.9s-.52-4.59-.93-6.86a131.07,131.07,0,0,0-2.87-13.55,132.24,132.24,0,0,1,3.12,13.51c.45,2.27.71,4.57,1.06,6.86s.54,4.59.68,6.9q.55,6.93.47,13.88a126.74,126.74,0,0,1-.84,13.89Z"/><path class="cls-3" d="M489.05,127.56c.23-8.64.27-17.3,0-25.95-.13-4.33-.33-8.65-.71-13-.21-2.15-.45-4.3-.82-6.43a30.68,30.68,0,0,0-.7-3.16,8.8,8.8,0,0,0-1.31-3A8.74,8.74,0,0,1,486.92,79a30.92,30.92,0,0,1,.76,3.16c.41,2.12.7,4.27.95,6.43.46,4.31.75,8.63,1,13,.4,8.66.52,17.32.46,26Z"/><path class="cls-3" d="M450.05,111.1c.8-4,1.44-8.14,2-12.24s1-8.22,1.21-12.35a97,97,0,0,0,0-12.41c-.31-4.1-.86-8.3-2.74-12,2,3.68,2.59,7.89,3,12a97.6,97.6,0,0,1,.21,12.45c-.17,4.15-.52,8.29-1,12.42s-1,8.24-1.74,12.34Z"/><path class="cls-3" d="M432.05,101.81c.6-9,.92-18.15.82-27.23-.06-4.54-.23-9.08-.69-13.6a56.66,56.66,0,0,0-1-6.73,14.15,14.15,0,0,0-2.6-6.21,14.36,14.36,0,0,1,2.73,6.19A58.58,58.58,0,0,1,432.43,61c.54,4.52.8,9.07.94,13.62.26,9.1.11,18.2-.33,27.3Z"/><path class="cls-3" d="M417.05,86.62c.13-3.65.13-7.32.05-11s-.27-7.33-.58-11A95,95,0,0,0,415,53.76a35.15,35.15,0,0,0-3.47-10.39,35.64,35.64,0,0,1,3.72,10.34A95.32,95.32,0,0,1,417,64.6c.39,3.66.68,7.33.83,11s.24,7.35.2,11Z"/><path class="cls-3" d="M399.06,86.51c1-4,1.9-8,2.64-12s1.34-8.1,1.73-12.18a72.07,72.07,0,0,0,.2-12.29,29.39,29.39,0,0,0-1.11-6,12.49,12.49,0,0,0-3-5.31A12.51,12.51,0,0,1,402.64,44a30.37,30.37,0,0,1,1.24,6,71.74,71.74,0,0,1,0,12.35c-.3,4.11-.82,8.2-1.48,12.27S401,82.74,400,86.76Z"/><path class="cls-3" d="M383.05,74.86A192.45,192.45,0,0,0,385.38,55a90.51,90.51,0,0,0,.12-10,41.81,41.81,0,0,0-.51-5,17.72,17.72,0,0,0-1.44-4.78,17.61,17.61,0,0,1,1.56,4.76,42,42,0,0,1,.64,5A93.73,93.73,0,0,1,385.88,55,195.11,195.11,0,0,1,384,75Z"/><path class="cls-3" d="M373.08,74.76A76.43,76.43,0,0,0,376,65a66.46,66.46,0,0,0,1.59-10.11,40.6,40.6,0,0,0-.39-10.21,24,24,0,0,0-3.69-9.49,24.16,24.16,0,0,1,3.94,9.44,41.26,41.26,0,0,1,.64,10.29,66.8,66.8,0,0,1-1.36,10.24,76,76,0,0,1-2.76,10Z"/><path class="cls-3" d="M358.22,61.7a21.48,21.48,0,0,0,4.29-5.64,20.8,20.8,0,0,0,2.3-6.77,21.17,21.17,0,0,0-.08-7.19,24.21,24.21,0,0,0-.86-3.53c-.37-1.15-.89-2.26-1.32-3.39.47,1.12,1,2.21,1.44,3.35a26.63,26.63,0,0,1,1,3.52,21.61,21.61,0,0,1,.32,7.31,21.32,21.32,0,0,1-2.12,7,22.4,22.4,0,0,1-4.3,6.05Z"/><path class="cls-3" d="M344.09,58.36a39,39,0,0,0,2.27-6.77,39.56,39.56,0,0,0,1-7.11,29.68,29.68,0,0,0-.5-7.16,26.32,26.32,0,0,0-2.33-6.82,26.75,26.75,0,0,1,2.58,6.76,30.34,30.34,0,0,1,.75,7.24A40.59,40.59,0,0,1,345,58.78Z"/><path class="cls-3" d="M368.05,64.33c1.44-8.11,2.76-16.26,3.88-24.42.55-4.09,1.08-8.18,1.45-12.28.11-1,.18-2.05.25-3.08s.15-2.06.17-3.09l.05-1.54c0-.52,0-1,0-1.55a21.11,21.11,0,0,0-.28-3.07,21.2,21.2,0,0,1,.34,3.07c0,.52.05,1,.06,1.55l0,1.54c0,1,0,2.07-.1,3.1s-.1,2.06-.19,3.09c-.29,4.12-.73,8.22-1.2,12.32-1,8.2-2.11,16.37-3.39,24.53Z"/><path class="cls-3" d="M389.06,70.13c1.27-3.61,2.63-7,3.83-10.6s2.34-7.11,3.31-10.73a71,71,0,0,0,2.13-11,27.59,27.59,0,0,0,.07-5.6A10.07,10.07,0,0,0,396.55,27a10.14,10.14,0,0,1,2,5.2,27.88,27.88,0,0,1,.06,5.63,70.75,70.75,0,0,1-1.9,11.1c-.88,3.66-1.93,7.27-3.08,10.84S391.17,66.9,390,70.4Z"/><path class="cls-3" d="M403.06,79.5c1-4,1.91-8.09,2.74-12.16s1.58-8.17,2.19-12.28a117.19,117.19,0,0,0,1.3-12.39,48,48,0,0,0-.07-6.23,13.25,13.25,0,0,0-1.67-5.94,13.2,13.2,0,0,1,1.79,5.93,46.52,46.52,0,0,1,.2,6.25,120.58,120.58,0,0,1-1.05,12.45c-.54,4.14-1.21,8.25-1.95,12.35S405,75.67,404,79.74Z"/><path class="cls-3" d="M423.06,94.72c.86-4.58,1.41-9.3,1.91-14s.87-9.39,1.09-14.09.29-9.43.05-14.14a69.16,69.16,0,0,0-.71-7,28.54,28.54,0,0,0-1.85-6.8,28.5,28.5,0,0,1,2,6.78,69.32,69.32,0,0,1,.84,7c.32,4.71.34,9.44.2,14.16s-.43,9.44-.84,14.15-.88,9.39-1.69,14.11Z"/><path class="cls-3" d="M441.06,101.73c1-4.39,1.8-8.87,2.43-13.35s1.1-9,1.27-13.52a94.56,94.56,0,0,0-.29-13.57A53.79,53.79,0,0,0,441.55,48a54.49,54.49,0,0,1,3.17,13.22,95.24,95.24,0,0,1,.54,13.62c-.09,4.55-.49,9.08-1,13.6S443,97.49,442,102Z"/><path class="cls-3" d="M426.08,101.66c1.75-4.58,3.36-9.24,4.84-13.94s2.82-9.43,4-14.22A106.72,106.72,0,0,0,437.38,59a44.13,44.13,0,0,0,.09-7.36,16.84,16.84,0,0,0-1.92-7.06,17,17,0,0,1,2.05,7,44.6,44.6,0,0,1,0,7.4,106.2,106.2,0,0,1-2.27,14.63c-1.05,4.82-2.32,9.6-3.72,14.33S428.71,97.37,427,102Z"/><path class="cls-3" d="M445.07,101.7C447.66,92.89,450,84,451.85,75c.92-4.5,1.74-9,2.23-13.6a51.05,51.05,0,0,0,.33-6.88,18.64,18.64,0,0,0-.37-3.42,5.61,5.61,0,0,0-1.49-3,5.66,5.66,0,0,1,1.55,3,18.72,18.72,0,0,1,.44,3.43,51.27,51.27,0,0,1-.21,6.9c-.41,4.59-1.15,9.15-2,13.68-1.72,9-3.87,18-6.31,26.9Z"/><path class="cls-3" d="M458.09,115.68c.35-1,.64-2.13.92-3.21s.55-2.21.8-3.32q.75-3.33,1.37-6.69c.84-4.48,1.5-9,1.95-13.52a91.38,91.38,0,0,0,.44-13.64,45.29,45.29,0,0,0-.8-6.78,23.19,23.19,0,0,0-2.22-6.44,23,23,0,0,1,2.34,6.41,44.35,44.35,0,0,1,.93,6.79,93.51,93.51,0,0,1-.19,13.7c-.37,4.56-.95,9.1-1.71,13.61-.38,2.26-.79,4.51-1.26,6.75-.23,1.12-.48,2.24-.74,3.35s-.5,2.2-.91,3.38Z"/><path class="cls-3" d="M449.17,106.19c2.29-2.66,4.51-5.42,6.65-8.22s4.2-5.69,6.11-8.66A59.12,59.12,0,0,0,467,80,18.34,18.34,0,0,0,468.34,75a9.69,9.69,0,0,0,0-1.32,6.28,6.28,0,0,0-.26-1.29,4.22,4.22,0,0,0-1.55-2.08,4.26,4.26,0,0,1,1.61,2.06,6.43,6.43,0,0,1,.29,1.3,8.44,8.44,0,0,1,0,1.33,18.54,18.54,0,0,1-1.26,5.17,60.29,60.29,0,0,1-4.85,9.46c-1.85,3-3.85,6-5.93,8.83s-4.23,5.69-6.49,8.43Z"/><path class="cls-3" d="M476.08,115.68c1.2-2.88,2.3-5.84,3.3-8.81s1.91-6,2.65-9a53.87,53.87,0,0,0,1.54-9.27,21.63,21.63,0,0,0-.17-4.69,8.05,8.05,0,0,0-1.85-4.25,8.18,8.18,0,0,1,2,4.23,21.91,21.91,0,0,1,.29,4.72,55,55,0,0,1-1.3,9.38c-.67,3.08-1.5,6.13-2.43,9.15s-1.94,6-3.08,9Z"/><path class="cls-3" d="M493.11,127.32a55.9,55.9,0,0,0,6.25-19.39,40.88,40.88,0,0,0,0-10.25L499,95.14c-.18-.84-.44-1.66-.65-2.49L498,91.41l-.47-1.2-.95-2.4,1,2.37.5,1.19.37,1.24c.24.83.52,1.65.71,2.49l.47,2.55a41.52,41.52,0,0,1,.26,10.33,55.83,55.83,0,0,1-2,10.17,56.52,56.52,0,0,1-3.86,9.67Z"/><path class="cls-3" d="M506.22,134.21a66.33,66.33,0,0,0,7.33-7.74,50.58,50.58,0,0,0,5.83-8.93,26.11,26.11,0,0,0,2.9-10.2,17.51,17.51,0,0,0-.54-5.3,18.62,18.62,0,0,0-2.19-4.88,18.57,18.57,0,0,1,2.31,4.84,17.54,17.54,0,0,1,.67,5.35,26.37,26.37,0,0,1-2.7,10.4,49.85,49.85,0,0,1-5.69,9.18,66.47,66.47,0,0,1-7.26,8Z"/><path class="cls-3" d="M483.08,122.72c1.48-4,2.78-8.1,3.95-12.22s2.19-8.3,3-12.51a81.89,81.89,0,0,0,1.47-12.77c.06-4.26-.2-8.65-1.93-12.62,1.81,3.93,2.16,8.35,2.18,12.63a81.26,81.26,0,0,1-1.23,12.84c-.71,4.25-1.65,8.46-2.74,12.62S485.44,119,484,123.07Z"/><path class="cls-3" d="M492.05,120.48a126.3,126.3,0,0,0,1.08-13.76q.21-6.91-.22-13.83c-.1-2.3-.36-4.6-.56-6.9s-.52-4.58-.93-6.86a130.33,130.33,0,0,0-2.87-13.54,132.67,132.67,0,0,1,3.12,13.5c.45,2.27.71,4.57,1.06,6.86s.54,4.6.68,6.91q.55,6.92.47,13.88a127,127,0,0,1-.84,13.89Z"/><path class="cls-3" d="M473.05,117c.23-8.64.27-17.3,0-25.95-.13-4.32-.33-8.64-.71-13-.21-2.16-.45-4.31-.82-6.44a31.28,31.28,0,0,0-.7-3.16,8.75,8.75,0,0,0-1.31-2.94,8.69,8.69,0,0,1,1.37,2.92,31.56,31.56,0,0,1,.76,3.16c.41,2.13.7,4.28.95,6.43.46,4.31.75,8.64,1,13,.4,8.66.52,17.32.46,26Z"/><path class="cls-3" d="M434.05,100.58c.8-4,1.44-8.15,2-12.25s1-8.22,1.21-12.35a96.81,96.81,0,0,0,0-12.4c-.31-4.1-.86-8.31-2.74-12,2,3.69,2.59,7.9,3,12A97.56,97.56,0,0,1,437.75,76c-.17,4.15-.52,8.29-1,12.41s-1,8.24-1.74,12.35Z"/><path class="cls-3" d="M416.05,91.28c.6-9,.92-18.14.82-27.22-.06-4.54-.23-9.09-.69-13.6a56.66,56.66,0,0,0-1-6.73,14.1,14.1,0,0,0-2.6-6.21c1.53,1.71,2.17,4,2.73,6.18a58.75,58.75,0,0,1,1.15,6.73c.54,4.52.8,9.07.94,13.62.26,9.1.11,18.2-.33,27.3Z"/><path class="cls-3" d="M401.05,76.1c.13-3.66.13-7.33.05-11s-.27-7.33-.58-11A95.33,95.33,0,0,0,399,43.23a35.35,35.35,0,0,0-3.47-10.39,35.74,35.74,0,0,1,3.72,10.34A95.49,95.49,0,0,1,401,54.08c.39,3.65.68,7.32.83,11s.24,7.35.2,11Z"/><path class="cls-3" d="M383.06,76c1-4,1.9-8,2.64-12s1.34-8.1,1.73-12.19a72,72,0,0,0,.2-12.28,29.48,29.48,0,0,0-1.11-6,12.54,12.54,0,0,0-3-5.31,12.57,12.57,0,0,1,3.09,5.27,30.66,30.66,0,0,1,1.24,6,71.86,71.86,0,0,1,0,12.36c-.3,4.11-.82,8.2-1.48,12.27S385,72.21,384,76.24Z"/><path class="cls-3" d="M367.05,64.34a192.45,192.45,0,0,0,2.33-19.9,90.54,90.54,0,0,0,.12-10,41.39,41.39,0,0,0-.51-5,17.89,17.89,0,0,0-1.44-4.79,17.72,17.72,0,0,1,1.56,4.76,42,42,0,0,1,.64,5,93.8,93.8,0,0,1,.13,10.06,195.3,195.3,0,0,1-1.84,20Z"/><path class="cls-3" d="M357.08,64.24a76.09,76.09,0,0,0,3-9.78,66.26,66.26,0,0,0,1.59-10.11,40.6,40.6,0,0,0-.39-10.21,24,24,0,0,0-3.69-9.49,24.14,24.14,0,0,1,3.94,9.45,41.26,41.26,0,0,1,.64,10.29,66.51,66.51,0,0,1-1.36,10.23,76.13,76.13,0,0,1-2.76,10Z"/><path class="cls-3" d="M342.22,51.18a21.48,21.48,0,0,0,4.29-5.64,20.86,20.86,0,0,0,2.3-6.78,21.17,21.17,0,0,0-.08-7.19,23.78,23.78,0,0,0-.86-3.52c-.37-1.16-.89-2.26-1.32-3.4.47,1.12,1,2.21,1.44,3.35a27.07,27.07,0,0,1,1,3.52,21.62,21.62,0,0,1,.32,7.31,21.3,21.3,0,0,1-2.12,7.05,22.56,22.56,0,0,1-4.3,6Z"/><path class="cls-3" d="M352.05,53.81c1.44-8.12,2.76-16.26,3.88-24.43.55-4.08,1.08-8.17,1.45-12.28.11-1,.18-2.05.25-3.08s.15-2,.17-3.08l.05-1.55c0-.51,0-1,0-1.54a21.24,21.24,0,0,0-.28-3.08,21.2,21.2,0,0,1,.34,3.07c0,.52.05,1,.06,1.55l0,1.55c0,1,0,2.06-.1,3.09s-.1,2.07-.19,3.09c-.29,4.12-.73,8.23-1.2,12.33-1,8.19-2.11,16.37-3.39,24.53Z"/><path class="cls-3" d="M373.06,59.6c1.27-3.6,2.63-7,3.83-10.6s2.34-7.11,3.31-10.72a71.12,71.12,0,0,0,2.13-11,27.48,27.48,0,0,0,.07-5.59,10,10,0,0,0-1.85-5.21,10.08,10.08,0,0,1,2,5.19,28,28,0,0,1,.06,5.64,70.75,70.75,0,0,1-1.9,11.1c-.88,3.65-1.93,7.26-3.08,10.84s-2.43,7.14-3.57,10.64Z"/><path class="cls-3" d="M387.06,69q1.5-6,2.74-12.17c.83-4.07,1.58-8.16,2.19-12.27a117.38,117.38,0,0,0,1.3-12.4,48,48,0,0,0-.07-6.23A13.17,13.17,0,0,0,391.55,20a13.2,13.2,0,0,1,1.79,5.92,46.63,46.63,0,0,1,.2,6.25,121,121,0,0,1-1.05,12.46c-.54,4.13-1.21,8.25-1.95,12.35S389,65.14,388,69.21Z"/><path class="cls-3" d="M407.06,84.19c.86-4.57,1.41-9.29,1.91-14s.87-9.39,1.09-14.1.29-9.43.05-14.13a68.58,68.58,0,0,0-.71-7,28.74,28.74,0,0,0-1.85-6.81,28.58,28.58,0,0,1,2,6.79,69.13,69.13,0,0,1,.84,7c.32,4.72.34,9.45.2,14.17s-.43,9.44-.84,14.15-.88,9.39-1.69,14.1Z"/><path class="cls-3" d="M425.06,91.2c1-4.39,1.8-8.87,2.43-13.34s1.1-9,1.27-13.53a94.59,94.59,0,0,0-.29-13.57,53.71,53.71,0,0,0-2.92-13.24,54.53,54.53,0,0,1,3.17,13.21,95.36,95.36,0,0,1,.54,13.62c-.09,4.55-.49,9.09-1,13.6S427,87,426,91.43Z"/><path class="cls-3" d="M410.08,91.14c1.75-4.59,3.36-9.25,4.84-13.94s2.82-9.44,4-14.22a107,107,0,0,0,2.5-14.54,44.25,44.25,0,0,0,.09-7.37A16.84,16.84,0,0,0,419.55,34a17,17,0,0,1,2.05,7.05,44.6,44.6,0,0,1,0,7.4,106.43,106.43,0,0,1-2.27,14.63c-1.05,4.82-2.32,9.59-3.72,14.33s-2.93,9.42-4.63,14.07Z"/><path class="cls-3" d="M429.07,91.17c2.59-8.81,4.9-17.72,6.78-26.72.92-4.5,1.74-9,2.23-13.6a51,51,0,0,0,.33-6.88,18.63,18.63,0,0,0-.37-3.41,5.57,5.57,0,0,0-1.49-3,5.63,5.63,0,0,1,1.55,3,19,19,0,0,1,.44,3.43,51.47,51.47,0,0,1-.21,6.91c-.41,4.59-1.15,9.14-2,13.67-1.72,9-3.87,18-6.31,26.91Z"/><path class="cls-3" d="M442.09,105.15c.35-1,.64-2.13.92-3.21s.55-2.2.8-3.31c.5-2.22,1-4.46,1.37-6.69.84-4.48,1.5-9,1.95-13.53a91.38,91.38,0,0,0,.44-13.64,45.45,45.45,0,0,0-.8-6.78,23.3,23.3,0,0,0-2.22-6.44A23.27,23.27,0,0,1,446.89,58a44.52,44.52,0,0,1,.93,6.79,93.65,93.65,0,0,1-.19,13.71c-.37,4.56-.95,9.1-1.71,13.61-.38,2.25-.79,4.5-1.26,6.74-.23,1.12-.48,2.24-.74,3.36s-.5,2.19-.91,3.38Z"/><path class="cls-3" d="M433.17,95.67c2.29-2.67,4.51-5.43,6.65-8.23s4.2-5.68,6.11-8.65a59.12,59.12,0,0,0,5-9.29,18.41,18.41,0,0,0,1.38-5.08,9.69,9.69,0,0,0,0-1.32,6.19,6.19,0,0,0-.26-1.28,4.22,4.22,0,0,0-1.55-2.08,4.21,4.21,0,0,1,1.61,2.06,6.28,6.28,0,0,1,.29,1.3,8.44,8.44,0,0,1,0,1.33,18.39,18.39,0,0,1-1.26,5.16,59.43,59.43,0,0,1-4.85,9.46c-1.85,3-3.85,6-5.93,8.84s-4.23,5.68-6.49,8.43Z"/><path class="cls-3" d="M460.08,105.16c1.2-2.89,2.3-5.84,3.3-8.81s1.91-6,2.65-9A54,54,0,0,0,467.57,78a21.65,21.65,0,0,0-.17-4.69,8.09,8.09,0,0,0-1.85-4.25,8.22,8.22,0,0,1,2,4.23,22,22,0,0,1,.29,4.72,54.72,54.72,0,0,1-1.3,9.38c-.67,3.09-1.5,6.14-2.43,9.16s-1.94,6-3.08,9Z"/><path class="cls-3" d="M477.11,116.8a56,56,0,0,0,6.25-19.4,40.8,40.8,0,0,0,0-10.24L483,84.62c-.18-.84-.44-1.66-.65-2.5L482,80.88l-.47-1.2-.95-2.4,1,2.38.5,1.19.37,1.24c.24.83.52,1.65.71,2.49l.47,2.54a41.6,41.6,0,0,1,.26,10.34A56.5,56.5,0,0,1,478,117.29Z"/><path class="cls-3" d="M490.22,123.68a65.55,65.55,0,0,0,7.33-7.74,49.67,49.67,0,0,0,5.83-8.93,26.11,26.11,0,0,0,2.9-10.2,17.58,17.58,0,0,0-.54-5.3,18.56,18.56,0,0,0-2.19-4.87,18.27,18.27,0,0,1,2.31,4.84,17.52,17.52,0,0,1,.67,5.34,26.47,26.47,0,0,1-2.7,10.41,50.53,50.53,0,0,1-5.69,9.18,67.23,67.23,0,0,1-7.26,8Z"/><path class="cls-3" d="M467.08,112.19c1.48-4,2.78-8.1,3.95-12.22s2.19-8.3,3-12.51a81.77,81.77,0,0,0,1.47-12.76c.06-4.26-.2-8.66-1.93-12.62,1.81,3.93,2.16,8.34,2.18,12.62a81.5,81.5,0,0,1-1.23,12.85c-.71,4.25-1.65,8.45-2.74,12.62s-2.32,8.29-3.75,12.37Z"/><path class="cls-3" d="M498.05,133.34a125.92,125.92,0,0,0,1.08-13.75c.14-4.61.07-9.23-.22-13.83-.1-2.31-.36-4.6-.56-6.9s-.52-4.59-.93-6.86a131.07,131.07,0,0,0-2.87-13.55A132.24,132.24,0,0,1,497.67,92c.45,2.27.71,4.57,1.06,6.86s.54,4.59.68,6.9q.55,6.93.47,13.88a126.74,126.74,0,0,1-.84,13.89Z"/><path class="cls-3" d="M479.05,129.9c.23-8.64.27-17.31,0-25.95-.13-4.33-.33-8.65-.71-13-.21-2.15-.45-4.3-.82-6.43a31.46,31.46,0,0,0-.7-3.17,8.84,8.84,0,0,0-1.31-2.94,8.74,8.74,0,0,1,1.37,2.93,30.3,30.3,0,0,1,.76,3.16c.41,2.12.7,4.27.95,6.43.46,4.3.75,8.63,1,13,.4,8.66.52,17.32.46,26Z"/><path class="cls-3" d="M440.05,113.44c.8-4,1.44-8.14,2-12.24s1-8.22,1.21-12.36a96.8,96.8,0,0,0,0-12.4c-.31-4.1-.86-8.3-2.74-12,2,3.68,2.59,7.89,3,12a97.6,97.6,0,0,1,.21,12.45c-.17,4.15-.52,8.29-1,12.42s-1,8.24-1.74,12.34Z"/><path class="cls-3" d="M422.05,104.15c.6-9.06.92-18.15.82-27.23-.06-4.54-.23-9.08-.69-13.6a56.66,56.66,0,0,0-1-6.73,14.15,14.15,0,0,0-2.6-6.21,14.38,14.38,0,0,1,2.73,6.18,59.13,59.13,0,0,1,1.15,6.73c.54,4.52.8,9.07.94,13.62.26,9.1.11,18.2-.33,27.3Z"/><path class="cls-3" d="M407.05,89c.13-3.65.13-7.33.05-11s-.27-7.33-.58-11A94.72,94.72,0,0,0,405,56.1a35.31,35.31,0,0,0-3.47-10.4,35.81,35.81,0,0,1,3.72,10.35A95.32,95.32,0,0,1,407,66.94c.39,3.66.68,7.33.83,11s.24,7.35.2,11Z"/><path class="cls-3" d="M389.06,88.85c1-4,1.9-8,2.64-12s1.34-8.1,1.73-12.18a72.07,72.07,0,0,0,.2-12.29,29.39,29.39,0,0,0-1.11-6,12.49,12.49,0,0,0-3-5.31,12.51,12.51,0,0,1,3.09,5.27,30.37,30.37,0,0,1,1.24,6.05,71.74,71.74,0,0,1,0,12.35c-.3,4.11-.82,8.2-1.48,12.27S391,85.08,390,89.1Z"/><path class="cls-3" d="M373.05,77.2a192.45,192.45,0,0,0,2.33-19.9,90.51,90.51,0,0,0,.12-10,41.6,41.6,0,0,0-.51-5,17.72,17.72,0,0,0-1.44-4.78,17.61,17.61,0,0,1,1.56,4.76,41.76,41.76,0,0,1,.64,5,93.58,93.58,0,0,1,.13,10,195,195,0,0,1-1.84,20Z"/><path class="cls-3" d="M363.08,77.1a76.43,76.43,0,0,0,3-9.77,66.66,66.66,0,0,0,1.59-10.11A40.58,40.58,0,0,0,367.24,47a24,24,0,0,0-3.69-9.49A24.16,24.16,0,0,1,367.49,47a41.26,41.26,0,0,1,.64,10.29,66.8,66.8,0,0,1-1.36,10.24,76,76,0,0,1-2.76,10Z"/><path class="cls-3" d="M348.22,64a21.48,21.48,0,0,0,4.29-5.64,20.78,20.78,0,0,0,2.3-6.78,21.18,21.18,0,0,0-.08-7.19,24.08,24.08,0,0,0-.86-3.52c-.37-1.15-.89-2.26-1.32-3.39.47,1.11,1,2.21,1.44,3.35a26.63,26.63,0,0,1,1,3.52,21.61,21.61,0,0,1,.32,7.31,21.32,21.32,0,0,1-2.12,7,22.4,22.4,0,0,1-4.3,6.05Z"/><path class="cls-3" d="M334.09,60.7a39,39,0,0,0,2.27-6.77,39.56,39.56,0,0,0,1-7.11,29.68,29.68,0,0,0-.5-7.16,26.32,26.32,0,0,0-2.33-6.82,26.75,26.75,0,0,1,2.58,6.76,30.34,30.34,0,0,1,.75,7.24A40.59,40.59,0,0,1,335,61.12Z"/><path class="cls-3" d="M358.05,66.67c1.44-8.11,2.76-16.26,3.88-24.42.55-4.09,1.08-8.18,1.45-12.28.11-1,.18-2.06.25-3.08s.15-2.06.17-3.09l.05-1.54c0-.52,0-1,0-1.55a21.11,21.11,0,0,0-.28-3.07,20.9,20.9,0,0,1,.34,3.07c0,.51.05,1,.06,1.55l0,1.54c0,1,0,2.07-.1,3.1s-.1,2.06-.19,3.09c-.29,4.12-.73,8.22-1.2,12.32-1,8.2-2.11,16.37-3.39,24.53Z"/><path class="cls-3" d="M379.06,72.47c1.27-3.61,2.63-7,3.83-10.6s2.34-7.11,3.31-10.73a71.22,71.22,0,0,0,2.13-11,27.59,27.59,0,0,0,.07-5.6,10.07,10.07,0,0,0-1.85-5.21,10.14,10.14,0,0,1,2,5.2,27.88,27.88,0,0,1,.06,5.63,70.75,70.75,0,0,1-1.9,11.1c-.88,3.65-1.93,7.26-3.08,10.84s-2.43,7.14-3.57,10.64Z"/><path class="cls-3" d="M393.06,81.84c1-4,1.91-8.09,2.74-12.16s1.58-8.17,2.19-12.28A117.19,117.19,0,0,0,399.29,45a48,48,0,0,0-.07-6.23,13.25,13.25,0,0,0-1.67-5.94,13.2,13.2,0,0,1,1.79,5.93,46.43,46.43,0,0,1,.2,6.24,120.77,120.77,0,0,1-1.05,12.46c-.54,4.14-1.21,8.25-1.95,12.35S395,78,394,82.08Z"/><path class="cls-3" d="M413.06,97.06c.86-4.58,1.41-9.3,1.91-14s.87-9.39,1.09-14.1.29-9.42.05-14.13a69.16,69.16,0,0,0-.71-7,28.54,28.54,0,0,0-1.85-6.8,28.37,28.37,0,0,1,2,6.78,69.32,69.32,0,0,1,.84,7c.32,4.71.34,9.44.2,14.16s-.43,9.44-.84,14.15-.88,9.39-1.69,14.11Z"/><path class="cls-3" d="M431.06,104.06c1-4.38,1.8-8.86,2.43-13.34s1.1-9,1.27-13.52a94.73,94.73,0,0,0-.29-13.58,53.81,53.81,0,0,0-2.92-13.24,54.49,54.49,0,0,1,3.17,13.22,95.24,95.24,0,0,1,.54,13.62c-.09,4.54-.49,9.08-1,13.6s-1.25,9-2.21,13.47Z"/><path class="cls-3" d="M416.08,104c1.75-4.58,3.36-9.25,4.84-13.94s2.82-9.43,4-14.22a106.72,106.72,0,0,0,2.5-14.54,44.23,44.23,0,0,0,.09-7.37,16.92,16.92,0,0,0-1.92-7.06,17.06,17.06,0,0,1,2.05,7.05,44.6,44.6,0,0,1,0,7.4A106.2,106.2,0,0,1,425.36,76c-1.05,4.82-2.32,9.6-3.72,14.33s-2.93,9.43-4.63,14.08Z"/><path class="cls-3" d="M435.07,104c2.59-8.81,4.9-17.72,6.78-26.72.92-4.5,1.74-9,2.23-13.6a51.05,51.05,0,0,0,.33-6.88,18.64,18.64,0,0,0-.37-3.42,5.61,5.61,0,0,0-1.49-3,5.66,5.66,0,0,1,1.55,3,18.72,18.72,0,0,1,.44,3.42,51.37,51.37,0,0,1-.21,6.91c-.41,4.59-1.15,9.15-2,13.67-1.72,9.06-3.87,18-6.31,26.91Z"/><path class="cls-3" d="M448.09,118c.35-1,.64-2.13.92-3.21s.55-2.21.8-3.32q.75-3.33,1.37-6.69c.84-4.48,1.5-9,1.95-13.52a91.52,91.52,0,0,0,.44-13.65,45.31,45.31,0,0,0-.8-6.77,23.19,23.19,0,0,0-2.22-6.44,23,23,0,0,1,2.34,6.41,44.35,44.35,0,0,1,.93,6.79,93.51,93.51,0,0,1-.19,13.7c-.37,4.56-.95,9.1-1.71,13.61-.38,2.26-.79,4.51-1.26,6.75-.23,1.12-.48,2.23-.74,3.35s-.5,2.2-.91,3.38Z"/><path class="cls-3" d="M439.17,108.53c2.29-2.66,4.51-5.42,6.65-8.23s4.2-5.68,6.11-8.65a59.12,59.12,0,0,0,5-9.29,18.32,18.32,0,0,0,1.38-5.08,9.52,9.52,0,0,0,0-1.31,6.28,6.28,0,0,0-.26-1.29,4.22,4.22,0,0,0-1.55-2.08,4.26,4.26,0,0,1,1.61,2.06,6.28,6.28,0,0,1,.29,1.3,8.44,8.44,0,0,1,0,1.33,18.39,18.39,0,0,1-1.26,5.16,60,60,0,0,1-4.85,9.47c-1.85,3-3.85,6-5.93,8.83s-4.23,5.68-6.49,8.43Z"/><path class="cls-3" d="M466.08,118c1.2-2.88,2.3-5.84,3.3-8.81s1.91-6,2.65-9a54,54,0,0,0,1.54-9.27,21.63,21.63,0,0,0-.17-4.69A8,8,0,0,0,471.55,82a8.18,8.18,0,0,1,2,4.23,21.91,21.91,0,0,1,.29,4.72,55,55,0,0,1-1.3,9.38c-.67,3.08-1.5,6.13-2.43,9.15s-1.94,6-3.08,9Z"/><path class="cls-3" d="M483.11,129.66a55.9,55.9,0,0,0,6.25-19.39,40.88,40.88,0,0,0,0-10.25L489,97.48c-.18-.84-.44-1.66-.65-2.49L488,93.74l-.47-1.2-.95-2.39,1,2.37.5,1.19.37,1.24c.24.83.52,1.65.71,2.49l.47,2.55a41.52,41.52,0,0,1,.26,10.33A56.63,56.63,0,0,1,484,130.16Z"/><path class="cls-3" d="M496.22,136.55a67.14,67.14,0,0,0,7.33-7.74,50,50,0,0,0,5.83-8.93,26.11,26.11,0,0,0,2.9-10.2,17.51,17.51,0,0,0-.54-5.3,18.62,18.62,0,0,0-2.19-4.88,18.57,18.57,0,0,1,2.31,4.84,17.52,17.52,0,0,1,.67,5.34,26.42,26.42,0,0,1-2.7,10.41,49.85,49.85,0,0,1-5.69,9.18,66.47,66.47,0,0,1-7.26,8Z"/><path class="cls-3" d="M473.08,125.06c1.48-4,2.78-8.11,3.95-12.23s2.19-8.29,3-12.51a81.63,81.63,0,0,0,1.47-12.76c.06-4.26-.2-8.65-1.93-12.62,1.81,3.93,2.16,8.35,2.18,12.63a81.37,81.37,0,0,1-1.23,12.84c-.71,4.25-1.65,8.46-2.74,12.62s-2.32,8.29-3.75,12.37Z"/><path class="cls-3" d="M512.05,139.19a125.91,125.91,0,0,0,1.08-13.76c.14-4.6.07-9.22-.22-13.83-.1-2.3-.36-4.59-.56-6.89s-.52-4.59-.93-6.86a130,130,0,0,0-2.87-13.55,132.67,132.67,0,0,1,3.12,13.5c.45,2.27.71,4.57,1.06,6.86s.54,4.6.68,6.91c.37,4.61.53,9.25.47,13.88a126.89,126.89,0,0,1-.84,13.89Z"/><path class="cls-3" d="M493.05,135.74c.23-8.64.27-17.3,0-25.95-.13-4.32-.33-8.64-.71-13-.21-2.15-.45-4.3-.82-6.43a30.87,30.87,0,0,0-.7-3.17,8.75,8.75,0,0,0-1.31-2.94,8.69,8.69,0,0,1,1.37,2.92,31.56,31.56,0,0,1,.76,3.16c.41,2.13.7,4.28.95,6.43.46,4.31.75,8.64,1,13,.4,8.65.52,17.32.46,26Z"/><path class="cls-3" d="M454.05,119.29c.8-4.05,1.44-8.15,2-12.25s1-8.22,1.21-12.35a96.81,96.81,0,0,0,0-12.4c-.31-4.1-.86-8.31-2.74-12,2,3.69,2.59,7.9,3,12a97.6,97.6,0,0,1,.21,12.45c-.17,4.15-.52,8.29-1,12.42s-1,8.23-1.74,12.34Z"/><path class="cls-3" d="M436.05,110c.6-9,.92-18.14.82-27.22-.06-4.54-.23-9.08-.69-13.6a56.66,56.66,0,0,0-1-6.73,14.1,14.1,0,0,0-2.6-6.21c1.53,1.71,2.17,4,2.73,6.18a59.13,59.13,0,0,1,1.15,6.73c.54,4.52.8,9.07.94,13.62.26,9.1.11,18.2-.33,27.3Z"/><path class="cls-3" d="M421.05,94.81c.13-3.65.13-7.33.05-11s-.27-7.33-.58-11A94.72,94.72,0,0,0,419,62a35.31,35.31,0,0,0-3.47-10.4,35.74,35.74,0,0,1,3.72,10.34A95.49,95.49,0,0,1,421,72.79c.39,3.66.68,7.33.83,11s.24,7.36.2,11Z"/><path class="cls-3" d="M403.06,94.7c1-4,1.9-8,2.64-12s1.34-8.1,1.73-12.18a72.09,72.09,0,0,0,.2-12.29,29.61,29.61,0,0,0-1.11-6,12.6,12.6,0,0,0-3-5.31,12.6,12.6,0,0,1,3.09,5.28,30.37,30.37,0,0,1,1.24,6.05,71.74,71.74,0,0,1,0,12.35c-.3,4.11-.82,8.2-1.48,12.27S405,90.93,404,95Z"/><path class="cls-3" d="M387.05,83.05a192.45,192.45,0,0,0,2.33-19.9,90.54,90.54,0,0,0,.12-10,41.6,41.6,0,0,0-.51-5,17.72,17.72,0,0,0-1.44-4.78,17.61,17.61,0,0,1,1.56,4.76,41.6,41.6,0,0,1,.64,5,93.8,93.8,0,0,1,.13,10.06,195,195,0,0,1-1.84,20Z"/><path class="cls-3" d="M377.08,83a76.09,76.09,0,0,0,3-9.78,66.33,66.33,0,0,0,1.59-10.1,40.58,40.58,0,0,0-.39-10.21,24,24,0,0,0-3.69-9.49,24.1,24.1,0,0,1,3.94,9.44,41.26,41.26,0,0,1,.64,10.29,66.51,66.51,0,0,1-1.36,10.23,76.13,76.13,0,0,1-2.76,10Z"/><path class="cls-3" d="M362.22,69.89a21.48,21.48,0,0,0,4.29-5.64,20.86,20.86,0,0,0,2.3-6.78,21.18,21.18,0,0,0-.08-7.19,23.78,23.78,0,0,0-.86-3.52c-.37-1.16-.89-2.26-1.32-3.39.47,1.11,1,2.2,1.44,3.35a26.21,26.21,0,0,1,1,3.52,21.56,21.56,0,0,1,.32,7.3,21.3,21.3,0,0,1-2.12,7.05,22.56,22.56,0,0,1-4.3,6Z"/><path class="cls-3" d="M348.09,66.55a39.75,39.75,0,0,0,3.29-13.88,29.76,29.76,0,0,0-.5-7.17,26.26,26.26,0,0,0-2.33-6.81,26.75,26.75,0,0,1,2.58,6.76,30.31,30.31,0,0,1,.75,7.23,40.23,40.23,0,0,1-.79,7.26A39.8,39.8,0,0,1,349,67Z"/><path class="cls-3" d="M372.05,72.52c1.44-8.11,2.76-16.26,3.88-24.43.55-4.08,1.08-8.17,1.45-12.28.11-1,.18-2.05.25-3.08s.15-2,.17-3.08l.05-1.55c0-.51,0-1,0-1.54a21.24,21.24,0,0,0-.28-3.08,21.18,21.18,0,0,1,.34,3.08c0,.51.05,1,.06,1.54l0,1.55c0,1,0,2.06-.1,3.1s-.1,2.06-.19,3.09c-.29,4.11-.73,8.22-1.2,12.32-1,8.2-2.11,16.37-3.39,24.53Z"/><path class="cls-3" d="M393.06,78.31c1.27-3.6,2.63-7,3.83-10.6S399.23,60.6,400.2,57a71.22,71.22,0,0,0,2.13-11,27.59,27.59,0,0,0,.07-5.6,10,10,0,0,0-1.85-5.21,10.14,10.14,0,0,1,2,5.2,27.87,27.87,0,0,1,.06,5.63,70.75,70.75,0,0,1-1.9,11.1c-.88,3.65-1.93,7.26-3.08,10.84s-2.43,7.14-3.57,10.64Z"/><path class="cls-3" d="M407.06,87.69q1.5-6,2.74-12.16c.83-4.08,1.58-8.17,2.19-12.28a117.1,117.1,0,0,0,1.3-12.4,47.82,47.82,0,0,0-.07-6.22,13.22,13.22,0,0,0-1.67-5.94,13.2,13.2,0,0,1,1.79,5.92,46.63,46.63,0,0,1,.2,6.25,120.77,120.77,0,0,1-1.05,12.46c-.54,4.13-1.21,8.25-1.95,12.35S409,83.85,408,87.93Z"/><path class="cls-3" d="M427.06,102.91c.86-4.58,1.41-9.3,1.91-14s.87-9.39,1.09-14.1.29-9.42.05-14.13a69.16,69.16,0,0,0-.71-7,28.74,28.74,0,0,0-1.85-6.81,28.58,28.58,0,0,1,2,6.79,69.13,69.13,0,0,1,.84,7c.32,4.72.34,9.45.2,14.17s-.43,9.44-.84,14.15-.88,9.39-1.69,14.1Z"/><path class="cls-3" d="M445.06,109.91c1-4.39,1.8-8.86,2.43-13.34s1.1-9,1.27-13.52a94.7,94.7,0,0,0-.29-13.58,53.71,53.71,0,0,0-2.92-13.24,54.53,54.53,0,0,1,3.17,13.21,95.36,95.36,0,0,1,.54,13.62c-.09,4.55-.49,9.09-1,13.6s-1.25,9-2.21,13.48Z"/><path class="cls-3" d="M430.08,109.85c1.75-4.59,3.36-9.25,4.84-13.94s2.82-9.43,4-14.22a107,107,0,0,0,2.5-14.54,44.25,44.25,0,0,0,.09-7.37,16.88,16.88,0,0,0-1.92-7.06,17.06,17.06,0,0,1,2.05,7.05,44.6,44.6,0,0,1,0,7.4,106.43,106.43,0,0,1-2.27,14.63c-1.05,4.82-2.32,9.6-3.72,14.33s-2.93,9.42-4.63,14.08Z"/><path class="cls-3" d="M449.07,109.89c2.59-8.81,4.9-17.73,6.78-26.73.92-4.5,1.74-9,2.23-13.6a50.9,50.9,0,0,0,.33-6.87,18.64,18.64,0,0,0-.37-3.42,5.61,5.61,0,0,0-1.49-3,5.63,5.63,0,0,1,1.55,3,18.72,18.72,0,0,1,.44,3.42,51.42,51.42,0,0,1-.21,6.91c-.41,4.59-1.15,9.14-2,13.67-1.72,9.06-3.87,18-6.31,26.91Z"/><path class="cls-3" d="M462.09,123.86c.35-1,.64-2.12.92-3.21s.55-2.2.8-3.31q.75-3.33,1.37-6.69c.84-4.48,1.5-9,1.95-13.52a91.56,91.56,0,0,0,.44-13.65,45.45,45.45,0,0,0-.8-6.78,23.42,23.42,0,0,0-2.22-6.44,23.22,23.22,0,0,1,2.34,6.42,44.35,44.35,0,0,1,.93,6.79,93.53,93.53,0,0,1-.19,13.7c-.37,4.56-.95,9.1-1.71,13.61-.38,2.25-.79,4.5-1.26,6.74-.23,1.12-.48,2.24-.74,3.36s-.5,2.19-.91,3.38Z"/><path class="cls-3" d="M453.17,114.38c2.29-2.66,4.51-5.42,6.65-8.23s4.2-5.68,6.11-8.65a59.12,59.12,0,0,0,5-9.29,18.32,18.32,0,0,0,1.38-5.08,9.55,9.55,0,0,0,0-1.31,6.28,6.28,0,0,0-.26-1.29,4.22,4.22,0,0,0-1.55-2.08,4.26,4.26,0,0,1,1.61,2.06,6.28,6.28,0,0,1,.29,1.3,8.44,8.44,0,0,1,0,1.33,18.39,18.39,0,0,1-1.26,5.16,60,60,0,0,1-4.85,9.47c-1.85,3-3.85,6-5.93,8.83s-4.23,5.68-6.49,8.43Z"/><path class="cls-3" d="M480.08,123.87c1.2-2.89,2.3-5.84,3.3-8.81s1.91-6,2.65-9a54,54,0,0,0,1.54-9.28,21.53,21.53,0,0,0-.17-4.68,8,8,0,0,0-1.85-4.25,8.15,8.15,0,0,1,2,4.22,22,22,0,0,1,.29,4.73,54.75,54.75,0,0,1-1.3,9.37c-.67,3.09-1.5,6.14-2.43,9.16s-1.94,6-3.08,9Z"/><path class="cls-3" d="M497.11,135.51a55.9,55.9,0,0,0,6.25-19.39,40.88,40.88,0,0,0,0-10.25l-.41-2.54c-.18-.84-.44-1.66-.65-2.49L502,99.59l-.47-1.2-.95-2.4,1,2.38.5,1.19.37,1.24c.24.83.52,1.65.71,2.49l.47,2.54a41.6,41.6,0,0,1,.26,10.34A56.5,56.5,0,0,1,498,136Z"/><path class="cls-3" d="M510.22,142.4a67.14,67.14,0,0,0,7.33-7.74,50.66,50.66,0,0,0,5.83-8.94,26.11,26.11,0,0,0,2.9-10.2,17.58,17.58,0,0,0-.54-5.3,18.71,18.71,0,0,0-2.19-4.87,18.42,18.42,0,0,1,2.31,4.84,17.52,17.52,0,0,1,.67,5.34,26.42,26.42,0,0,1-2.7,10.41,50.53,50.53,0,0,1-5.69,9.18,66.47,66.47,0,0,1-7.26,8Z"/><path class="cls-3" d="M487.08,130.9c1.48-4,2.78-8.1,3.95-12.22s2.19-8.29,3-12.51a81.63,81.63,0,0,0,1.47-12.76c.06-4.26-.2-8.66-1.93-12.62,1.81,3.93,2.16,8.34,2.18,12.62a81.5,81.5,0,0,1-1.23,12.85c-.71,4.25-1.65,8.45-2.74,12.62s-2.32,8.29-3.75,12.37Z"/></svg>