<svg xmlns="http://www.w3.org/2000/svg" viewBox="0 0 770 5100.42"><defs><style>.cls-1{fill:none;stroke:#000;stroke-linecap:round;stroke-miterlimit:10;stroke-width:11px;}.cls-2{fill:#fff;}</style></defs><title>Lang_tau</title><g id="Layer_2" data-name="Layer 2"><g id="Layer_1-2" data-name="Layer 1"><path class="cls-1" d="M363.23,211.92s61,19,132-4"/><polygon class="cls-2" points="2.74 3.43 0 254.38 124.79 253.01 124.79 214.61 50.05 215.3 47.31 4.11 2.74 3.43"/><polygon class="cls-2" points="147.42 6.86 152.9 252.32 195.41 252.32 192.67 5.49 147.42 6.86"/><polygon class="cls-2" points="239.3 2.74 237.93 253.69 283.18 253.69 283.18 87.77 325.69 134.39 361.35 85.02 366.83 252.32 406.6 253.69 401.11 5.49 357.23 6.86 325.69 56.22 287.29 5.49 239.3 2.74"/><path class="cls-2" d="M552,97.36l38.4-24.68L589,26.06,556.07,2.74,453.22,1.37V251H568.41l27.43-26V138.5ZM490.25,38.6l43.88,11-43.88,28.8Zm48,157.7L493,214.13V116.76l45.26,31.54Z"/><path class="cls-2" d="M768.63,39.77,727.49,0H671.26L638.35,42.51V220.78L671.26,251l65.83,1.37L770,224.9Zm-40.2,143-24.68,27.43L675,181.35v-107L701,41.48l27.42,32.91Z"/><path class="cls-1" d="M495.09,218.92s-49.4,23.45-65.36,73.35c0,0-12-45.91-65.87-69.86"/><path class="cls-1" d="M429.73,289.27s6,1246.81,1,2178.89-7,2457.29,0,2626.76"/></g></g></svg>