<svg id="Layer_1" data-name="Layer 1" xmlns="http://www.w3.org/2000/svg" viewBox="0 0 809 2680"><defs><style>.cls-1{fill:none;stroke:#000;stroke-linecap:round;stroke-miterlimit:10;stroke-width:11px;}.cls-2{fill:#fff;}</style></defs><title>Limbo_tau</title><path class="cls-1" d="M380.77,230.73s61,19,132-4"/><polygon class="cls-2" points="21.29 22.24 18.55 273.19 143.34 271.82 143.34 233.43 68.6 234.11 65.86 22.93 21.29 22.24"/><polygon class="cls-2" points="165.96 25.67 171.45 271.14 213.96 271.14 211.22 24.3 165.96 25.67"/><polygon class="cls-2" points="257.84 21.56 256.47 272.51 301.72 272.51 301.72 106.58 344.24 153.2 379.89 103.84 385.38 271.14 425.14 272.51 419.66 24.3 375.78 25.67 344.24 75.04 305.84 24.3 257.84 21.56"/><path class="cls-2" d="M570.5,116.18l38.4-24.69-1.37-46.62L574.62,21.56,471.77,20.19V269.77H587l27.43-26.06V157.32ZM508.79,57.41l43.89,11-43.89,28.8Zm48,157.7-45.25,17.83V135.58l45.25,31.54Z"/><path class="cls-2" d="M787.17,58.58,746,18.81H689.81L656.9,61.32V239.6l32.91,30.17,65.82,1.37,32.92-27.43ZM747,201.54,722.29,229,693.5,200.17V93.2l26-32.91L747,93.2Z"/><path class="cls-1" d="M512.77,227.73s-49.5,23.5-65.5,73.5c0,0-12-46-66-70"/><path class="cls-1" d="M447.27,298.23s6,618,1,1080-7,1218,0,1302"/></svg>