<svg xmlns="http://www.w3.org/2000/svg" viewBox="0 0 176.37 213.34"><defs><style>.cls-1{fill:none;stroke:#fff;stroke-miterlimit:10;stroke-width:8px;}.cls-2{fill:#fff;}</style></defs><title>Apple</title><g id="Layer_2" data-name="Layer 2"><g id="Layer_1-2" data-name="Layer 1"><polygon class="cls-1" points="171.92 156.79 79.03 208.67 4.09 160.53 9.33 37 85.57 4.4 149.68 35.74 171.92 156.79"/><path class="cls-2" d="M64.8,101.78a11.28,11.28,0,0,1,5.39-9.5,11.65,11.65,0,0,0-9.13-4.94c-3.88-.39-7.58,2.29-9.55,2.29s-5-2.23-8.23-2.17A12.19,12.19,0,0,0,33,93.71c-4.4,7.64-1.13,19,3.16,25.14,2.1,3,4.59,6.43,7.87,6.31s4.36-2,8.18-2,4.89,2,8.23,2S66,122,68,119a27.49,27.49,0,0,0,3.46-7.1,11,11,0,0,1-6.7-10.09ZM58.52,83.24a11,11,0,0,0,2.6-8,11.21,11.21,0,0,0-7.35,3.78,10.48,10.48,0,0,0-2.65,7.72,9.23,9.23,0,0,0,7.4-3.53Z"/><path class="cls-2" d="M85.05,96.63a.84.84,0,1,1-1.67,0,.88.88,0,0,1,.85-.91A.84.84,0,0,1,85.05,96.63ZM83.79,124v-21h.86v21Z"/><path class="cls-2" d="M113.22,109.09c0,10.57-5.86,15.38-12.28,15.38s-11.88-5.2-11.88-14.94c0-10,5.5-15.37,12.34-15.37S113.22,99.44,113.22,109.09Zm-23.29.22c0,8,3.89,14.24,11,14.24s11.34-6.42,11.34-14.33c0-7.34-3.31-14-10.87-14S89.93,101.49,89.93,109.31Z"/><path class="cls-2" d="M116.38,121.76a12.17,12.17,0,0,0,6.07,1.89c4.06,0,7.67-2.84,7.67-7,0-3.88-2.41-5.9-6.49-7.64-3.66-1.56-6.94-3.25-6.94-7.4,0-4.32,3.4-7.38,8-7.38A9.69,9.69,0,0,1,130,95.51l-.35.76a9.86,9.86,0,0,0-4.93-1.19,6.59,6.59,0,0,0-7,6.41c0,3.76,2.91,5,6.67,6.81,4.36,2.14,6.68,4,6.68,8.13,0,4.41-3.14,8-8.73,8a11.59,11.59,0,0,1-6.29-1.79Z"/></g></g></svg>