<svg xmlns="http://www.w3.org/2000/svg" viewBox="0 0 141.29 240.17"><defs><style>.cls-1{fill:none;stroke:#fff;stroke-miterlimit:10;stroke-width:8px;}.cls-2{fill:#fff;}</style></defs><title>GooglePlay</title><g id="Layer_2" data-name="Layer 2"><g id="Layer_1-2" data-name="Layer 1"><polygon class="cls-1" points="137.29 184.55 50.83 235.07 4.05 182.61 8.38 59.07 63.8 4.85 137.29 41.6 137.29 184.55"/><path class="cls-2" d="M47.22,87.2c-1.39.43-2.21,1.91-2.21,4v59.73c0,2.06.79,3.46,2.17,3.9L78,121Zm5.36,1.64L79.9,118.91l9.13-10Zm39.06,21.48L81.85,121l9.83,10.76,13.38-7.35c2.48-1.39,3.45-2,3.45-3.36s-1-2-3.45-3.37ZM80,123.16,52.49,153.27l36.63-20.06Z"/></g></g></svg>