<svg xmlns="http://www.w3.org/2000/svg" viewBox="0 0 137.09 209.03"><defs><style>.cls-1{fill:#fff;fill-rule:evenodd;}.cls-2{fill:none;stroke:#fff;stroke-miterlimit:10;stroke-width:8px;}</style></defs><title>nintendo</title><g id="Layer_2" data-name="Layer 2"><g id="Layer_1-2" data-name="Layer 1"><path class="cls-1" d="M69.05,89.13v-24c0-.68,0-.69.71-.69,2.49,0,5,0,7.47,0A12.65,12.65,0,0,1,89.48,74.65a15.55,15.55,0,0,1,.27,2.81c0,7.88,0,15.76,0,23.65a12.74,12.74,0,0,1-12.71,12.83c-2.39,0-4.78,0-7.18,0-.82,0-.82,0-.82-.84Zm9.85-2.46a5,5,0,0,0-5,4.9,5.06,5.06,0,0,0,4.68,5.05,5,5,0,1,0,.36-10Z"/><path class="cls-1" d="M64.1,89.18v24.08c0,.62-.06.69-.69.69H53.19a12.74,12.74,0,0,1-9.07-3.54,12.29,12.29,0,0,1-3.62-6.52,11.53,11.53,0,0,1-.27-2.26c0-8.29-.13-16.58,0-24.87.1-5.19,2.76-9,7.45-11.21a12.34,12.34,0,0,1,5.5-1.13H63.38c.7,0,.72,0,.72.74Zm-4,20.72V68.42h-.54c-2.08,0-4.17,0-6.25,0a13.08,13.08,0,0,0-2.08.19,8.69,8.69,0,0,0-7,8.35c0,8.17,0,16.33,0,24.49a8.29,8.29,0,0,0,2.8,6.17,8.73,8.73,0,0,0,6.11,2.31h6.48Z"/><path class="cls-1" d="M40.11,130.77c.81,0,1.57,0,2.33,0,.1,0,.24.21.28.34.7,2.62,1.4,5.24,2.13,8,.12-.38.23-.66.31-.94.68-2.33,1.37-4.67,2-7,.09-.32.21-.43.54-.41a7.49,7.49,0,0,0,1.16,0,.53.53,0,0,1,.65.46c.7,2.47,1.43,4.92,2.15,7.38,0,.15.09.29.17.55.18-.63.33-1.16.47-1.69.57-2.13,1.13-4.26,1.71-6.39a.47.47,0,0,1,.31-.29c.75,0,1.49,0,2.31,0-.15.56-.28,1.07-.43,1.58q-1.38,4.88-2.77,9.74a.46.46,0,0,1-.54.41c-.65,0-1.31,0-2,0a.5.5,0,0,1-.58-.44c-.63-2.3-1.29-4.6-1.94-6.91,0-.05,0-.11-.08-.28-.22.73-.41,1.37-.59,2-.49,1.74-1,3.47-1.46,5.21-.08.31-.21.43-.54.42-.68,0-1.37,0-2.05,0-.22,0-.36,0-.44-.29-1-3.71-2.1-7.42-3.15-11.13A1.9,1.9,0,0,1,40.11,130.77Z"/><path class="cls-1" d="M93.18,130.77c0,1.4,0,2.74,0,4.07,0,.41.08.57.54.56,1.44,0,2.89,0,4.33,0,.47,0,.58-.15.57-.59,0-1.18,0-2.36,0-3.54,0-.16,0-.31,0-.48H101v11.66H98.6v-4.58H93.21v4.61c-.8,0-1.56,0-2.31,0-.07,0-.18-.29-.18-.44,0-1.74,0-3.48,0-5.22s0-3.74,0-5.6c0-.32.07-.45.41-.44C91.78,130.78,92.45,130.77,93.18,130.77Z"/><path class="cls-1" d="M28,141.51,29,139.62c.79.27,1.52.57,2.28.77a7.09,7.09,0,0,0,3.85,0,2,2,0,0,0,.66-.33,1,1,0,0,0-.27-1.87,21.32,21.32,0,0,0-2.51-.6,10.16,10.16,0,0,1-3.73-1.17,2.68,2.68,0,0,1-.39-4.24,6.21,6.21,0,0,1,4.46-1.53,13.19,13.19,0,0,1,4.21.79,1.54,1.54,0,0,1,.22.14c-.28.66-.54,1.32-.8,1.94a24,24,0,0,0-2.53-.64,5.92,5.92,0,0,0-3.12.21,1,1,0,0,0-.76.89.88.88,0,0,0,.75.89c.93.26,1.89.42,2.82.67a24.17,24.17,0,0,1,2.78.86A2.66,2.66,0,0,1,38.77,139a3.21,3.21,0,0,1-1.69,3,7.17,7.17,0,0,1-3.07.79,11.44,11.44,0,0,1-5.73-1.06l-.21-.11A.7.7,0,0,1,28,141.51Z"/><path class="cls-1" d="M88.07,133.19l-1.88,1.64A3.73,3.73,0,0,0,83,133a3.56,3.56,0,0,0-2.59,1.08,3.62,3.62,0,0,0,3.09,6.12,3.8,3.8,0,0,0,2.73-1.77l1.86,1.61a6,6,0,0,1-5.73,2.79,6.23,6.23,0,1,1,5.75-9.66Z"/><path class="cls-1" d="M71.26,142.47H68.71v-9.19H65V130.8h9.86v2.46H71.26Z"/><path class="cls-1" d="M62.11,142.49H60l-.44,0V130.8h2.54Z"/><path class="cls-1" d="M94.9,124.54a3.3,3.3,0,1,1,3.28,3.32A3.25,3.25,0,0,1,94.9,124.54Zm3.26-1.9a1.91,1.91,0,0,0,0,3.82,1.91,1.91,0,1,0,0-3.82Z"/><path class="cls-1" d="M78.66,125.45v-4a7.53,7.53,0,0,1,1.07,0c.1,0,.22.26.22.4,0,1.59,0,3.17,0,4.76v1a10.51,10.51,0,0,1-1.13,0c-.12,0-.24-.16-.33-.27l-2.83-3.8v4.06H74.4v-6.21c.37,0,.74,0,1.1,0,.11,0,.23.13.31.23L78.3,125C78.39,125.11,78.48,125.22,78.66,125.45Z"/><path class="cls-1" d="M44.72,121.44a10.15,10.15,0,0,1,1.11,0,.8.8,0,0,1,.42.32c.84,1.11,1.67,2.23,2.51,3.35l.25.3v-3.13c0-.86,0-.86.85-.86h.4v6.21c-.6,0-1.17.18-1.63-.53-.68-1.07-1.49-2-2.25-3.07l-.36-.45v4l-.13.08c-1.17.06-1.17.06-1.17-1.11Z"/><path class="cls-1" d="M32.75,121.45H34v6.21a4.69,4.69,0,0,1-.84,0,.94.94,0,0,1-.56-.28c-.85-1.11-1.67-2.24-2.5-3.36-.09-.12-.19-.23-.36-.42v4c-.07,0-.09.06-.12.06-1.17.07-1.17.07-1.17-1.09,0-1.56,0-3.11,0-4.66,0-.37.12-.45.48-.48a1.28,1.28,0,0,1,1.3.63c.73,1.06,1.53,2.07,2.3,3.1a1.64,1.64,0,0,0,.21.23Z"/><path class="cls-1" d="M85.15,127.59v-6.16c.7,0,1.37,0,2,0a6.48,6.48,0,0,1,1.46.17,3,3,0,0,1,2.22,3.28,3,3,0,0,1-2.62,2.68A29.22,29.22,0,0,1,85.15,127.59Zm1.27-3.09c0,.48,0,1,0,1.44,0,.25.07.39.34.37s.85,0,1.26,0a1.75,1.75,0,0,0,.07-3.46c-.43-.06-.87,0-1.3-.07s-.38.13-.37.4C86.43,123.6,86.42,124.05,86.42,124.5Z"/><path class="cls-1" d="M65.81,122.62l-.08.11c-.13,1.21-.13,1.21,1.09,1.21H69v1.11H65.74v1.4h3.49v1.19H64.49v-6.18h4.79a8,8,0,0,1,0,1c0,.08-.23.17-.35.17-.87,0-1.74,0-2.61,0Z"/><path class="cls-1" d="M56.66,122.79H54.71v-1.32h5.18v1.32H58v4.85H56.66Z"/><path class="cls-1" d="M38.75,121.46h1.33v6.17H38.75Z"/><path class="cls-1" d="M47.94,79.24a4.66,4.66,0,1,1,4.58,4.69A4.61,4.61,0,0,1,47.94,79.24Z"/><polygon class="cls-2" points="124.27 156.25 73.42 204.06 4 163.24 4 51.59 66.81 4.94 132.92 51.59 124.27 156.25"/></g></g></svg>