<svg xmlns="http://www.w3.org/2000/svg" viewBox="0 0 153.19 213.17"><defs><style>.cls-1{fill:none;stroke:#fff;stroke-miterlimit:10;stroke-width:8px;}.cls-2{fill:#fff;}</style></defs><title>Origin</title><g id="Layer_2" data-name="Layer 2"><g id="Layer_1-2" data-name="Layer 1"><polygon class="cls-1" points="149.13 157.22 81.03 208.02 17.27 151.82 4.3 53.46 79.77 4.82 145.88 51.48 149.13 157.22"/><path class="cls-2" d="M43.34,92.77a.36.36,0,0,1,.51.18c.07.17-.05.33-.14.46a8.09,8.09,0,0,0-1.33,3.21.25.25,0,0,0-.13.32l.19.06a13.22,13.22,0,0,1,3.92.18,12.28,12.28,0,0,1,9.53,9.52,12.33,12.33,0,0,1-.82,7.53,25.45,25.45,0,0,1-10.63,11.38.36.36,0,0,1-.46-.07A.42.42,0,0,1,44,125a8.19,8.19,0,0,0,1.29-2.91,2,2,0,0,0,.09-.65c-.08-.1-.2-.07-.31-.07a12.22,12.22,0,0,1-11.79-6,12.13,12.13,0,0,1-1.68-6.35,12.3,12.3,0,0,1,1.54-5.84A25.38,25.38,0,0,1,43.34,92.77m-.13,11.68a4.8,4.8,0,0,0-3.3,2.07,4.79,4.79,0,1,0,8.56,4.07,4.79,4.79,0,0,0-5.26-6.14Z"/><path class="cls-2" d="M85.92,99.86a2.15,2.15,0,0,1,2.34.89,2.13,2.13,0,0,1-3.52,2.4,2.14,2.14,0,0,1,1.18-3.29Z"/><path class="cls-2" d="M105.46,99.85a2.13,2.13,0,0,1,1.65,3.87,2.17,2.17,0,0,1-1.72.25,2.12,2.12,0,0,1-1.3-3.06A2.09,2.09,0,0,1,105.46,99.85Z"/><path class="cls-2" d="M65.46,102a8,8,0,0,1,4.44.71,7,7,0,0,1,3,2.63,7.22,7.22,0,0,1-2.34,10,8.12,8.12,0,0,1-7.32.48A7.17,7.17,0,0,1,59,108a7,7,0,0,1,2-3.91A7.52,7.52,0,0,1,65.46,102m.42,3.49a3.37,3.37,0,0,0-2,1.09,4,4,0,0,0,0,5.28A3.47,3.47,0,0,0,66.68,113,3.38,3.38,0,0,0,69,111.82a4,4,0,0,0-.26-5.49A3.54,3.54,0,0,0,65.88,105.47Z"/><path class="cls-2" d="M101.27,104.29a1.74,1.74,0,0,1,.41-.2c.15.06.32.17.31.36,0,3.11,0,6.23,0,9.35a6.5,6.5,0,0,1-.89,3.48,4.6,4.6,0,0,1-2.64,1.82,11.93,11.93,0,0,1-7.69-.75.35.35,0,0,1-.21-.49c.3-.63.61-1.27.92-1.89a.36.36,0,0,1,.53-.13,7.17,7.17,0,0,0,3.94.8,2.56,2.56,0,0,0,1.8-.9,3.12,3.12,0,0,0,.48-2.09,4.48,4.48,0,0,1-2.17,1.43,4.93,4.93,0,0,1-4-.71,4.66,4.66,0,0,1-1.81-2.73,6.49,6.49,0,0,1,0-2.74A4.78,4.78,0,0,1,92,106.06a4.48,4.48,0,0,1,2-.88,8.16,8.16,0,0,1,1.31-.06h2.73a.4.4,0,0,1,.3.07c.23.19.43.42.64.62.76-.51,1.53-1,2.28-1.52m-5.84,3.89a2.08,2.08,0,0,0-1,3.46,2.36,2.36,0,0,0,3.28,0,2.14,2.14,0,0,0,0-2.9A2.38,2.38,0,0,0,95.43,108.18Z"/><path class="cls-2" d="M115.46,105.43a4.11,4.11,0,0,1,2.25-.24,3.36,3.36,0,0,1,2,1.1,4,4,0,0,1,.82,1.92,11.34,11.34,0,0,1,.07,1.75v5.8a.35.35,0,0,1-.36.42h-3.09a.33.33,0,0,1-.36-.35c0-1.82,0-3.64,0-5.45a2.07,2.07,0,0,0-.48-1.46,1.56,1.56,0,0,0-2.34.3,2.4,2.4,0,0,0-.29,1.29c0,1.78,0,3.55,0,5.32a.31.31,0,0,1-.3.34h-3c-.14,0-.3,0-.41-.1a.66.66,0,0,1-.1-.46c0-3.28,0-6.57,0-9.85a.36.36,0,0,1,.36-.4h3c.18,0,.4.07.42.27,0,.41,0,.83,0,1.24A4.79,4.79,0,0,1,115.46,105.43Z"/><path class="cls-2" d="M80.84,105.67a3.13,3.13,0,0,1,1.63-.48.34.34,0,0,1,.36.36c0,1.1,0,2.2,0,3.29a.37.37,0,0,1-.43.37,2.87,2.87,0,0,0-2.14.84,3.84,3.84,0,0,0-.83,2.42c0,1.12,0,2.24,0,3.35a.35.35,0,0,1-.38.36H76a.32.32,0,0,1-.34-.35V105.69c0-.21.22-.34.41-.32,1,0,2,0,3,0a.35.35,0,0,1,.38.34c0,.59,0,1.18,0,1.77A3.93,3.93,0,0,1,80.84,105.67Z"/><path class="cls-2" d="M84.93,105.37h2.92c.15,0,.32,0,.43.11a.45.45,0,0,1,.11.37v9.92a.36.36,0,0,1-.33.42H84.91a.36.36,0,0,1-.33-.42v-10A.34.34,0,0,1,84.93,105.37Z"/><path class="cls-2" d="M104.35,105.38c1,0,2,0,3.06,0,.2,0,.46.1.45.33,0,3.38,0,6.76,0,10.14a.3.3,0,0,1-.3.34H104.4a.31.31,0,0,1-.32-.27,4.24,4.24,0,0,1,0-.71v-9.44A.35.35,0,0,1,104.35,105.38Z"/><path class="cls-2" d="M104.44,120.51l.51-.07c0,1.36,0,2.71,0,4.07h-.43c0-.08,0-.16,0-.23a1.53,1.53,0,0,1-1.34.21.71.71,0,0,1-.41-.7v-1.33a.77.77,0,0,1,.42-.76,2.56,2.56,0,0,1,1.29,0v-1.17m-1.2,1.95c0,.42,0,.85,0,1.27a.33.33,0,0,0,.23.36,1.16,1.16,0,0,0,1-.3v-1.66a3,3,0,0,0-.94,0A.34.34,0,0,0,103.24,122.46Z"/><path class="cls-2" d="M107.34,120.51l.51-.07v1.34a2.07,2.07,0,0,1,1.18-.14.71.71,0,0,1,.52.69c0,.46,0,.93,0,1.39a.77.77,0,0,1-.54.75,3.63,3.63,0,0,1-1.67,0v-3.95m.5,1.75c0,.61,0,1.21,0,1.82a2.17,2.17,0,0,0,.88,0,.4.4,0,0,0,.31-.35,10.4,10.4,0,0,0,0-1.12c0-.18,0-.43-.22-.51A1.56,1.56,0,0,0,107.84,122.26Z"/><path class="cls-2" d="M84.58,120.63H86a1.11,1.11,0,0,1,.89.32,1.48,1.48,0,0,1,.2,1,1.46,1.46,0,0,1-.19.9,1,1,0,0,1-.79.32c-.35,0-.7,0-1,0v1.38h-.51v-3.88m.5.46c0,.52,0,1,0,1.56a6.3,6.3,0,0,0,1.23,0c.34-.1.26-.5.27-.77s0-.59-.23-.69A5,5,0,0,0,85.08,121.09Z"/><path class="cls-2" d="M114.57,124.51v-3.88h2.29v.45h-1.77c0,.41,0,.81,0,1.21h1.64c0,.15,0,.3,0,.45h-1.65V124h1.78v.47Z"/><path class="cls-2" d="M118.63,120.63h.7l1.3,3.87h-.52c-.11-.31-.22-.62-.32-.93h-1.63c-.11.31-.2.62-.31.93h-.53c.44-1.3.87-2.59,1.31-3.88m-.33,2.5h1.36c-.24-.69-.45-1.39-.68-2.09C118.74,121.74,118.53,122.43,118.3,123.13Z"/><path class="cls-2" d="M88.43,121.67a1.74,1.74,0,0,1,1,0,1,1,0,0,1,.65.73,9.1,9.1,0,0,1,0,1,1.11,1.11,0,0,1-.29.82,1.19,1.19,0,0,1-1,.3,1.11,1.11,0,0,1-.9-.41,1.68,1.68,0,0,1-.18-1,2.4,2.4,0,0,1,.12-1,.91.91,0,0,1,.57-.46m.21.41a.53.53,0,0,0-.39.52,7.08,7.08,0,0,0,0,1.13c.11.42.67.48,1,.31s.27-.52.27-.8a2.4,2.4,0,0,0-.09-.93A.74.74,0,0,0,88.64,122.08Z"/><path class="cls-2" d="M95.34,121.78a1.53,1.53,0,0,1,1-.15.86.86,0,0,1,.68.51,3.39,3.39,0,0,1,.09,1.15c-.56,0-1.12,0-1.68,0,0,.26-.06.62.23.77A2.61,2.61,0,0,0,97,124c0,.13,0,.27.07.41a2.86,2.86,0,0,1-1.56.08.84.84,0,0,1-.57-.77c0-.37,0-.75,0-1.12a.94.94,0,0,1,.38-.82m.29.37c-.21.17-.16.47-.17.72h1.19c0-.26,0-.59-.21-.76A.83.83,0,0,0,95.63,122.15Z"/><path class="cls-2" d="M98,121.66h.44l0,.38a4.51,4.51,0,0,1,.77-.44c0,.15.05.3.08.46-.28.15-.55.32-.82.49v2H98C98,123.56,98,122.61,98,121.66Z"/><path class="cls-2" d="M99.81,122.33a.87.87,0,0,1,.74-.69,1.28,1.28,0,0,1,1.19.27c.31.39.2.92.22,1.38-.56,0-1.12,0-1.68,0,0,.27,0,.67.28.79a2.83,2.83,0,0,0,1.29-.08l.06.41a2.77,2.77,0,0,1-1.61.06.89.89,0,0,1-.52-.89,10.48,10.48,0,0,1,0-1.25m.69-.21c-.25.16-.22.49-.22.75h1.19c0-.25,0-.55-.17-.73A.79.79,0,0,0,100.5,122.12Z"/><path class="cls-2" d="M110.05,121.66h.49c.26.8.51,1.61.77,2.41.26-.8.52-1.6.77-2.41h.51c-.44,1.33-.87,2.67-1.34,4h-.48l.39-1.13H111C110.66,123.56,110.34,122.61,110.05,121.66Z"/><path class="cls-2" d="M90.58,121.67h.48c.16.77.31,1.54.46,2.31.23-.77.46-1.54.68-2.31h.61c.22.77.45,1.54.67,2.31.16-.77.31-1.54.47-2.31h.48c-.21,1-.4,1.9-.61,2.85h-.64c-.22-.79-.45-1.58-.68-2.37-.22.79-.44,1.58-.67,2.37h-.65Z"/></g></g></svg>