<svg xmlns="http://www.w3.org/2000/svg" viewBox="0 0 154.54 217.2"><defs><style>.cls-1{fill:#fff;}.cls-2{fill:none;stroke:#fff;stroke-miterlimit:10;stroke-width:8px;}</style></defs><title>Ps4</title><g id="Layer_2" data-name="Layer 2"><g id="Layer_1-2" data-name="Layer 1"><path class="cls-1" d="M51.21,124.25a.1.1,0,0,1,0-.06v-.25a.32.32,0,0,0,0-.17.16.16,0,0,0-.08-.06.47.47,0,0,0,.1-.1.36.36,0,0,0,0-.19.31.31,0,0,0-.18-.31.53.53,0,0,0-.23,0H50.2v1.26h.21v-.52h.34l.13,0A.16.16,0,0,1,51,124v.2a.25.25,0,0,0,0,.1.09.09,0,0,0,0,0h.25v-.06h0Zm-.3-.67a.25.25,0,0,1-.16,0h-.34v-.36h.36l.12,0a.17.17,0,0,1,.08.16A.16.16,0,0,1,50.91,123.58Z"/><path class="cls-1" d="M51.45,122.92a1.08,1.08,0,0,0-.78-.34,1.14,1.14,0,0,0-.78,1.94,1,1,0,0,0,.78.34,1.08,1.08,0,0,0,.78-.34,1.16,1.16,0,0,0,0-1.6Zm-.78,1.75a.88.88,0,0,1-.65-.28,1,1,0,0,1,0-1.34.88.88,0,0,1,.65-.27.91.91,0,0,1,.65.27,1,1,0,0,1,.27.67A.94.94,0,0,1,50.67,124.67Z"/><path class="cls-1" d="M28.18,120.49a5,5,0,0,0,2.83-.15l2.34-.87V122l-.46.08a15,15,0,0,1-7.29-.6c-2.29-.67-2.67-2-1.63-2.84a11.22,11.22,0,0,1,2.61-1.28l6.77-2.48v2.82l-4.87,1.79C27.61,119.8,27.48,120.25,28.18,120.49Z"/><path class="cls-1" d="M52.17,119.5a5.36,5.36,0,0,1-2,1.26l-10.33,3.81v-2.81l7.6-2.78c.86-.32,1-.77.3-1a5,5,0,0,0-2.83.15L39.89,120V117l.29-.1a17.42,17.42,0,0,1,3.52-.77,14.72,14.72,0,0,1,6.56.81C52.49,117.7,52.74,118.77,52.17,119.5Z"/><path class="cls-1" d="M40.87,114.72v-7.19c0-.84-.15-1.62-.92-1.84-.59-.2-1,.37-1,1.21v18l-4.73-1.54V101.9a55.77,55.77,0,0,1,6.51,1.83c4,1.41,5.36,3.17,5.36,7.13S43.82,116.18,40.87,114.72Z"/><path class="cls-1" d="M126.53,118.49h-2.77a.1.1,0,0,1-.1-.1v-9.54c0-1.46-1-1.94-2.37-1.06l-16.63,10.49c-.65.41-.87.88-.71,1.22s.49.51,1.21.51h15.45a.1.1,0,0,1,.09.07v1.34a.09.09,0,0,0,.09.1h2.78a.09.09,0,0,0,.09-.1v-1.31a.1.1,0,0,1,.1-.1h2.77a.11.11,0,0,0,.1-.1v-1.32A.11.11,0,0,0,126.53,118.49Zm-5.83-.1a.11.11,0,0,1-.1.1H107.66c-.11,0-.16,0-.18-.07s0-.11.1-.16l12.88-8.15c.09-.06.24,0,.24.13Z"/><path class="cls-1" d="M78.48,115H66.85c-1.08,0-1.83.93-1.83,2.27v4.18a.09.09,0,0,1-.09.1H62.16a.1.1,0,0,1-.1-.1v-4.18c0-2.16,1.42-3.79,3.3-3.79H77.5c1.3,0,1.91-1,1.91-2.29s-.62-2.3-1.91-2.3H62.16a.1.1,0,0,1-.1-.1v-1.31a.1.1,0,0,1,.1-.1H78.48a3.81,3.81,0,1,1,0,7.62Z"/><path class="cls-1" d="M105.12,108.86h-8c-1.3,0-1.91,1-1.91,2.29v6.56a3.57,3.57,0,0,1-3.9,3.81H81.81a.1.1,0,0,1-.1-.1v-1.31a.1.1,0,0,1,.1-.1h8.48c1.3,0,1.92-1,1.92-2.3v-6.55a3.56,3.56,0,0,1,3.89-3.81h9a.11.11,0,0,1,.1.1v1.32A.11.11,0,0,1,105.12,108.86Z"/><polygon class="cls-1" points="130.75 121.52 130.75 120.22 130.32 121.52 130.12 121.52 129.7 120.22 129.7 121.52 129.5 121.52 129.5 119.93 129.78 119.93 130.22 121.28 130.67 119.93 130.95 119.93 130.95 121.52 130.75 121.52"/><polygon class="cls-1" points="128.79 120.11 128.79 121.52 128.59 121.52 128.59 120.11 128.08 120.11 128.08 119.93 129.3 119.93 129.3 120.11 128.79 120.11"/><polygon class="cls-2" points="150.31 173.72 83.25 212.6 9.51 171.78 4.1 48.25 76.63 4.83 138.42 52.57 150.31 173.72"/></g></g></svg>