<svg xmlns="http://www.w3.org/2000/svg" viewBox="0 0 205.63 158.16"><defs><style>.cls-1{fill:#fff;}.cls-2{fill:none;stroke:#fff;stroke-miterlimit:10;stroke-width:8px;}</style></defs><title>PSvita</title><g id="Layer_2" data-name="Layer 2"><g id="Layer_1-2" data-name="Layer 1"><path class="cls-1" d="M40.22,65.88V90.57l5.59,1.77V71.63c0-1,.43-1.62,1.13-1.39.91.25,1.09,1.15,1.09,2.12v8.27c3.48,1.68,6.22,0,6.22-4.44s-1.6-6.58-6.33-8.2a66.2,66.2,0,0,0-7.7-2.11"/><path class="cls-1" d="M46.87,88.74l9-3.21c1-.36,1.17-.88.35-1.15a6.16,6.16,0,0,0-3.35.17l-6,2.11V83.3l.34-.11a21,21,0,0,1,4.16-.89,17.86,17.86,0,0,1,7.76.93c2.63.83,2.93,2.06,2.26,2.9a6.36,6.36,0,0,1-2.31,1.45L46.87,92Z"/><path class="cls-1" d="M30,88.4c-2.7-.77-3.16-2.35-1.92-3.27a13.46,13.46,0,0,1,3.08-1.48l8-2.84v3.24l-5.77,2.06c-1,.37-1.17.89-.35,1.16a6.16,6.16,0,0,0,3.35-.17l2.77-1V89l-.55.09A18.25,18.25,0,0,1,30,88.4"/><path class="cls-1" d="M58.53,91a1.11,1.11,0,0,1,.31-.77,1.07,1.07,0,0,1,.77-.32,1.06,1.06,0,0,1,.77.32,1.07,1.07,0,0,1,.32.77,1.09,1.09,0,0,1-1.09,1.09,1.07,1.07,0,0,1-.77-.32,1.11,1.11,0,0,1-.31-.77m1.08,1.31A1.31,1.31,0,1,0,58.3,91a1.33,1.33,0,0,0,1.31,1.31"/><path class="cls-1" d="M60,90.66a.18.18,0,0,1-.07.17.34.34,0,0,1-.19,0h-.4v-.41h.43a.29.29,0,0,1,.14,0,.17.17,0,0,1,.09.17m.29.94a.1.1,0,0,1,0-.07.59.59,0,0,0,0-.11v-.18a.3.3,0,0,0,0-.2L60.06,91a.52.52,0,0,0,.11-.1.41.41,0,0,0,0-.23.35.35,0,0,0-.21-.35.61.61,0,0,0-.28-.05h-.67v1.45h.25v-.6h.4a.31.31,0,0,1,.15,0,.17.17,0,0,1,.09.15v.24a.31.31,0,0,0,0,.11.43.43,0,0,0,0,0v0h.29v-.08h0"/><path class="cls-1" d="M172.48,87.14a1.09,1.09,0,0,1,1.86-.76,1,1,0,0,1,.32.76,1.09,1.09,0,0,1-1.09,1.09,1.09,1.09,0,0,1-1.09-1.09m1.09,1.31a1.3,1.3,0,0,0,.93-.38,1.32,1.32,0,0,0,0-1.85,1.31,1.31,0,1,0-1.85,1.85,1.26,1.26,0,0,0,.92.38"/><path class="cls-1" d="M173.93,86.82a.17.17,0,0,1-.07.16.33.33,0,0,1-.19,0h-.4v-.41h.43l.14,0a.18.18,0,0,1,.09.18m.28.93s0,0,0-.06,0-.06,0-.11v-.19a.31.31,0,0,0-.05-.19.18.18,0,0,0-.08-.07.57.57,0,0,0,.11-.11.48.48,0,0,0,.05-.22.37.37,0,0,0-.21-.36.78.78,0,0,0-.28,0H173v1.46h.26v-.6h.39l.16,0a.17.17,0,0,1,.08.16v.23a.62.62,0,0,1,0,.12s0,0,0,0v0h.28v-.09h0"/><path class="cls-1" d="M73.09,83.46v4.88a.12.12,0,0,0,.12.12h3.17a.13.13,0,0,0,.12-.12V83.46c0-1.42.74-2.41,1.79-2.41h8.27c2.63,0,4.27-1.7,4.27-4.45s-1.64-4.46-4.27-4.46H73.21a.12.12,0,0,0-.12.12V74a.12.12,0,0,0,.12.12H85.53c1.2,0,1.89.89,1.89,2.44S86.73,79,85.53,79H76.72c-2.07,0-3.63,1.9-3.63,4.42"/><path class="cls-1" d="M102.23,74.16h6.27a.12.12,0,0,0,.12-.12V72.26a.12.12,0,0,0-.12-.12h-7.3c-2.63,0-4.27,1.7-4.27,4.45V84c0,1.55-.69,2.44-1.89,2.44H88.57a.12.12,0,0,0-.12.12v1.77a.12.12,0,0,0,.12.13h7.51c2.63,0,4.26-1.71,4.26-4.46V76.6c0-1.55.69-2.44,1.89-2.44"/><rect class="cls-1" x="132.53" y="72.15" width="3.41" height="16.31" rx="0.12"/><path class="cls-1" d="M122.57,86.66l7.71-14.38a.09.09,0,0,0-.07-.14h-2a.22.22,0,0,0-.17.11l-6.17,11.52c-.46.85-1.23,1-1.68.1l-6.23-11.62a.22.22,0,0,0-.17-.11h-3.53c-.08,0-.11.07-.07.15l7.71,14.37a3.54,3.54,0,0,0,1.55,1.62,2.15,2.15,0,0,0,2.68-.92,4.71,4.71,0,0,0,.46-.7"/><path class="cls-1" d="M154.16,72.15H138.27a.12.12,0,0,0-.12.12V74a.12.12,0,0,0,.12.12h6a.22.22,0,0,1,.21.21v14a.12.12,0,0,0,.12.12h3.17a.12.12,0,0,0,.12-.12v-14a.22.22,0,0,1,.21-.21h6a.12.12,0,0,0,.12-.12V72.27a.12.12,0,0,0-.12-.12"/><path class="cls-1" d="M171.34,88.31l-7.72-14.37a3.57,3.57,0,0,0-1.54-1.62,2.19,2.19,0,0,0-2.69.92,4.69,4.69,0,0,0-.45.7l-7.72,14.38a.09.09,0,0,0,.07.14h2a.23.23,0,0,0,.18-.11l1.65-3.08h0a.4.4,0,0,1,.32-.19h10.13a.39.39,0,0,1,.31.18h0l1.65,3.08a.22.22,0,0,0,.18.11h3.52c.09,0,.12-.07.08-.15m-6.84-5.22h-7.95a.14.14,0,0,1-.13-.22h0l3.23-6c.45-.86,1.22-1,1.67-.11l3.3,6.16a.13.13,0,0,1-.13.2"/><polygon class="cls-2" points="32.45 153.87 4.39 77.52 45.8 4.1 169.3 9.41 201.4 72.65 185.74 138.46 32.45 153.87"/></g></g></svg>