<svg xmlns="http://www.w3.org/2000/svg" viewBox="0 0 163.29 202.12"><defs><style>.cls-1{fill:none;stroke:#fff;stroke-miterlimit:10;stroke-width:8px;}.cls-2{fill:#fff;}</style></defs><title>Steam</title><g id="Layer_2" data-name="Layer 2"><g id="Layer_1-2" data-name="Layer 1"><polygon class="cls-1" points="159.29 165.55 76.65 197.69 13.07 160.95 4.17 42.05 65.2 4.23 159.29 22.6 159.29 165.55"/><path class="cls-2" d="M45.13,72.74A18,18,0,0,0,27.3,89.35l9.59,4a5,5,0,0,1,2.85-.89H40l4.27-6.24v-.09A6.75,6.75,0,1,1,51,93h-.15L44.8,97.33v.24a5.06,5.06,0,0,1-10,1l-6.86-2.86a17.92,17.92,0,1,0,17.21-23Zm-6.62,27.4-2.19-.92A3.77,3.77,0,0,0,43.24,99a3.84,3.84,0,0,0-2-5,3.75,3.75,0,0,0-2.81,0l2.28.94a2.84,2.84,0,0,1,1.5,3.7A2.79,2.79,0,0,1,38.51,100.14Zm17-14A4.5,4.5,0,1,0,51,90.68,4.52,4.52,0,0,0,55.53,86.14Zm-7.87,0A3.38,3.38,0,1,1,51,89.54,3.4,3.4,0,0,1,47.66,86.14Z"/><polygon class="cls-2" points="139.36 97 136.32 97 136.32 89.09 133.32 97 131.49 97 128.5 89.09 128.5 97 125.28 97 125.28 83.42 129.07 83.42 132.41 92.65 135.75 83.42 139.36 83.42 139.36 97"/><path class="cls-2" d="M117.26,83.6h-2.34L110,97.5h2.88l.82-2.27h4.53L119,97.5h3.17ZM114.5,93,116.15,88,117.8,93Z"/><polygon class="cls-2" points="107.28 97 98.22 97 98.22 83.42 107.28 83.42 107.28 85.76 101.1 85.76 101.1 88.97 106.45 88.97 106.45 91.32 101.1 91.32 101.1 94.65 107.28 94.65 107.28 97"/><polygon class="cls-2" points="94.47 85.76 91.18 85.76 91.18 97 88.3 97 88.3 85.76 84.59 85.76 84.59 83.42 94.47 83.42 94.47 85.76"/><path class="cls-2" d="M82,93c0,2.79-2.47,4.07-4.94,4.11s-4.12-.58-4.94-1.81l1.65-1.69a4.29,4.29,0,0,0,3.29,1.15c1.65,0,2.47-.57,2.47-1.68s-.82-1.48-1.65-1.65l-1.64-.2q-3.7-.49-3.71-3.83a3.94,3.94,0,0,1,1.24-3,5,5,0,0,1,3.29-1.11,6.38,6.38,0,0,1,4.53,1.57L80,86.54a4.43,4.43,0,0,0-2.88-.94c-1.23.08-2.06.53-2.06,1.73,0,.94.83,1.39,1.65,1.48l1.65.24A3.92,3.92,0,0,1,82,93Z"/></g></g></svg>