<svg xmlns="http://www.w3.org/2000/svg" viewBox="0 0 248.44 139.66"><defs><style>.cls-1{fill:none;stroke:#fff;stroke-miterlimit:10;stroke-width:8px;}.cls-2{fill:#fff;}</style></defs><title>XboxOne</title><g id="Layer_2" data-name="Layer 2"><g id="Layer_1-2" data-name="Layer 1"><polygon class="cls-1" points="34.19 128.2 4.54 79.45 40.29 4.2 193.88 15.85 243.87 55.32 221.3 135.54 34.19 128.2"/><path class="cls-2" d="M140.08,89.67l-6.36-8.62-6.35,8.62h-2.61l7.64-10.42-7-9.47H128l5.68,7.73,5.69-7.73H142l-7,9.47,7.64,10.42Zm-49.52,0L82.91,79.25l7-9.47H87.27l-5.68,7.73-5.68-7.73H73.3l7,9.47L72.62,89.67h2.62l6.35-8.62,6.35,8.62Z"/><path class="cls-2" d="M105.1,80a5.87,5.87,0,0,0-1.3-.83,4.5,4.5,0,0,0,2.39-4c0-1.27-.47-5.41-6.47-5.41H91.64v8.58H89c-.34.45-1.14,1.54-1.44,2h4.13v9.32h8.08c4.38,0,7.1-2.22,7.1-5.81A4.92,4.92,0,0,0,105.1,80M93.88,71.86h5.84c1.58,0,4.23.39,4.23,3.16,0,2.09-1.54,3.34-4.23,3.34H93.88v-6.5ZM99.72,87.6H93.88V80.36h5.84c2.22,0,4.87.61,4.87,3.46,0,3.29-3,3.78-4.87,3.78m17.6-18.28c-5.58,0-9.49,4.28-9.49,10.4s3.91,10.39,9.49,10.39,9.48-4.27,9.48-10.39-3.89-10.4-9.48-10.4m0,18.69c-4.25,0-7.24-3.41-7.24-8.29s3-8.3,7.24-8.3,7.22,3.41,7.22,8.3-3,8.29-7.22,8.29M38.52,67.65v0h0A16.56,16.56,0,0,0,37,89.51a.09.09,0,0,0,.09,0,.08.08,0,0,0,0-.09c-1.26-3.91,5.2-13.38,8.54-17.35,0,0,0,0,0,0a.09.09,0,0,0,0,0c-5.62-5.59-7.12-4.32-7.09-4.33m23.28,0v0h0a16.58,16.58,0,0,1,1.54,21.84.07.07,0,0,1-.08,0,.08.08,0,0,1,0-.09c1.26-3.91-5.2-13.39-8.53-17.36a.09.09,0,0,1,0,0,.07.07,0,0,1,0-.05c5.61-5.59,7.1-4.31,7.08-4.32M50.15,62.88a16.35,16.35,0,0,1,8.64,2.43.07.07,0,0,1,0,.08.06.06,0,0,1-.08,0c-3.21-.69-8.09,2.08-8.55,2.36h-.07c-1.23-.7-5.74-3.07-8.58-2.34a.07.07,0,0,1-.08,0,.06.06,0,0,1,0-.08,16.31,16.31,0,0,1,8.66-2.45m0,13.3.06,0C55.17,80,63.66,89.31,61.07,92h0a16.58,16.58,0,0,1-21.83,0h0c-2.59-2.64,5.9-12,10.86-15.74a.09.09,0,0,1,0,0m131.14-6.4V86.1l-12-16.33h-2V89.64h2.22v-16l11.78,16h2.22V69.78Zm-25.49-.46c-5.59,0-9.49,4.27-9.49,10.39s3.9,10.41,9.49,10.41,9.48-4.28,9.48-10.41-3.9-10.39-9.48-10.39m0,18.69c-4.26,0-7.24-3.41-7.24-8.3s3-8.29,7.24-8.29S163,74.83,163,79.71s-3,8.3-7.22,8.3m32.42-.3V80.36h10.94v-2H188.22v-6.7H199.9V69.77H186V89.66h14v-2Z"/></g></g></svg>